M48
; DRILL file {KiCad 6.0.8+dfsg-1} date Mon 17 Oct 2022 05:12:02 BST
; FORMAT={-:-/ absolute / metric / decimal}
; #@! TF.CreationDate,2022-10-17T05:12:02+01:00
; #@! TF.GenerationSoftware,Kicad,Pcbnew,6.0.8+dfsg-1
; #@! TF.FileFunction,Plated,1,2,PTH
FMAT,2
METRIC
; #@! TA.AperFunction,Plated,PTH,ViaDrill
T1C0.400
; #@! TA.AperFunction,Plated,PTH,ComponentDrill
T2C0.750
; #@! TA.AperFunction,Plated,PTH,ComponentDrill
T3C0.800
; #@! TA.AperFunction,Plated,PTH,ComponentDrill
T4C1.100
; #@! TA.AperFunction,Plated,PTH,ComponentDrill
T5C1.200
; #@! TA.AperFunction,Plated,PTH,ComponentDrill
T6C1.300
; #@! TA.AperFunction,Plated,PTH,ComponentDrill
T7C1.320
%
G90
G05
T1
X215.9Y-140.653
T2
X239.712Y-153.352
X240.03Y-150.177
X241.3Y-151.765
X247.177Y-127.519
X248.764Y-129.106
X250.352Y-127.836
T3
X229.559Y-150.812
X230.256Y-155.395
X232.024Y-157.162
X233.369Y-150.812
X236.22Y-155.032
X236.22Y-157.572
X236.537Y-150.177
X236.537Y-152.718
X240.665Y-157.48
X243.205Y-157.48
X244.475Y-150.495
X244.475Y-153.035
X245.745Y-157.48
X246.859Y-138.43
X246.859Y-140.97
X247.722Y-145.371
X247.812Y-151.289
X249.489Y-147.139
X250.352Y-151.289
X250.507Y-153.987
X250.507Y-158.987
X250.511Y-131.644
X250.511Y-136.644
X251.304Y-139.224
X252.098Y-142.24
X254.162Y-147.069
X254.162Y-149.609
X254.638Y-142.24
X255.114Y-139.224
T4
X218.602Y-156.934
X221.142Y-156.934
X223.682Y-156.934
X246.859Y-133.35
X246.859Y-135.89
X254.0Y-128.27
X254.0Y-130.81
X254.0Y-133.35
T5
X219.71Y-140.713
X222.25Y-140.713
X224.79Y-140.713
T6
X230.541Y-130.532
X230.541Y-142.732
X236.541Y-128.532
X242.541Y-130.532
T7
X220.98Y-128.68
X220.98Y-133.68
X220.98Y-146.142
X220.98Y-151.142
T0
M30
