%TF.GenerationSoftware,KiCad,Pcbnew,6.0.8+dfsg-1*%
%TF.CreationDate,2022-10-17T05:12:03+01:00*%
%TF.ProjectId,CapInrushLimBB-rounded,43617049-6e72-4757-9368-4c696d42422d,rev?*%
%TF.SameCoordinates,Original*%
%TF.FileFunction,Drillmap*%
%TF.FilePolarity,Positive*%
%FSLAX45Y45*%
G04 Gerber Fmt 4.5, Leading zero omitted, Abs format (unit mm)*
G04 Created by KiCad (PCBNEW 6.0.8+dfsg-1) date 2022-10-17 05:12:03*
%MOMM*%
%LPD*%
G01*
G04 APERTURE LIST*
%ADD10C,0.100000*%
%ADD11C,0.200000*%
%ADD12C,0.320000*%
G04 APERTURE END LIST*
D10*
X20701000Y-12541125D02*
X26273125Y-12541125D01*
X26273125Y-12541125D02*
X26273125Y-16033750D01*
X26273125Y-16033750D02*
X20701000Y-16033750D01*
X20701000Y-16033750D02*
X20701000Y-12541125D01*
D11*
D12*
X20922000Y-13857625D02*
X21242000Y-14177625D01*
X21242000Y-13857625D02*
X20922000Y-14177625D01*
X25748306Y-15397500D02*
X26068306Y-15717500D01*
X26068306Y-15397500D02*
X25748306Y-15717500D01*
D11*
X20953619Y-16349226D02*
X20953619Y-16149226D01*
X21001238Y-16149226D01*
X21029810Y-16158750D01*
X21048857Y-16177798D01*
X21058381Y-16196845D01*
X21067905Y-16234940D01*
X21067905Y-16263512D01*
X21058381Y-16301607D01*
X21048857Y-16320655D01*
X21029810Y-16339702D01*
X21001238Y-16349226D01*
X20953619Y-16349226D01*
X21153619Y-16349226D02*
X21153619Y-16215893D01*
X21153619Y-16253988D02*
X21163143Y-16234940D01*
X21172667Y-16225417D01*
X21191714Y-16215893D01*
X21210762Y-16215893D01*
X21277429Y-16349226D02*
X21277429Y-16215893D01*
X21277429Y-16149226D02*
X21267905Y-16158750D01*
X21277429Y-16168274D01*
X21286952Y-16158750D01*
X21277429Y-16149226D01*
X21277429Y-16168274D01*
X21401238Y-16349226D02*
X21382190Y-16339702D01*
X21372667Y-16320655D01*
X21372667Y-16149226D01*
X21506000Y-16349226D02*
X21486952Y-16339702D01*
X21477429Y-16320655D01*
X21477429Y-16149226D01*
X21734571Y-16349226D02*
X21734571Y-16149226D01*
X21801238Y-16292083D01*
X21867905Y-16149226D01*
X21867905Y-16349226D01*
X22048857Y-16349226D02*
X22048857Y-16244464D01*
X22039333Y-16225417D01*
X22020286Y-16215893D01*
X21982190Y-16215893D01*
X21963143Y-16225417D01*
X22048857Y-16339702D02*
X22029810Y-16349226D01*
X21982190Y-16349226D01*
X21963143Y-16339702D01*
X21953619Y-16320655D01*
X21953619Y-16301607D01*
X21963143Y-16282559D01*
X21982190Y-16273036D01*
X22029810Y-16273036D01*
X22048857Y-16263512D01*
X22144095Y-16215893D02*
X22144095Y-16415893D01*
X22144095Y-16225417D02*
X22163143Y-16215893D01*
X22201238Y-16215893D01*
X22220286Y-16225417D01*
X22229810Y-16234940D01*
X22239333Y-16253988D01*
X22239333Y-16311131D01*
X22229810Y-16330178D01*
X22220286Y-16339702D01*
X22201238Y-16349226D01*
X22163143Y-16349226D01*
X22144095Y-16339702D01*
X22325048Y-16330178D02*
X22334571Y-16339702D01*
X22325048Y-16349226D01*
X22315524Y-16339702D01*
X22325048Y-16330178D01*
X22325048Y-16349226D01*
X22325048Y-16225417D02*
X22334571Y-16234940D01*
X22325048Y-16244464D01*
X22315524Y-16234940D01*
X22325048Y-16225417D01*
X22325048Y-16244464D01*
X20496000Y-16578750D02*
X20696000Y-16778750D01*
X20696000Y-16578750D02*
X20496000Y-16778750D01*
X20934571Y-16569226D02*
X21058381Y-16569226D01*
X20991714Y-16645417D01*
X21020286Y-16645417D01*
X21039333Y-16654940D01*
X21048857Y-16664464D01*
X21058381Y-16683512D01*
X21058381Y-16731131D01*
X21048857Y-16750178D01*
X21039333Y-16759702D01*
X21020286Y-16769226D01*
X20963143Y-16769226D01*
X20944095Y-16759702D01*
X20934571Y-16750178D01*
X21144095Y-16750178D02*
X21153619Y-16759702D01*
X21144095Y-16769226D01*
X21134571Y-16759702D01*
X21144095Y-16750178D01*
X21144095Y-16769226D01*
X21229810Y-16588274D02*
X21239333Y-16578750D01*
X21258381Y-16569226D01*
X21306000Y-16569226D01*
X21325048Y-16578750D01*
X21334571Y-16588274D01*
X21344095Y-16607321D01*
X21344095Y-16626369D01*
X21334571Y-16654940D01*
X21220286Y-16769226D01*
X21344095Y-16769226D01*
X21467905Y-16569226D02*
X21486952Y-16569226D01*
X21506000Y-16578750D01*
X21515524Y-16588274D01*
X21525048Y-16607321D01*
X21534571Y-16645417D01*
X21534571Y-16693036D01*
X21525048Y-16731131D01*
X21515524Y-16750178D01*
X21506000Y-16759702D01*
X21486952Y-16769226D01*
X21467905Y-16769226D01*
X21448857Y-16759702D01*
X21439333Y-16750178D01*
X21429810Y-16731131D01*
X21420286Y-16693036D01*
X21420286Y-16645417D01*
X21429810Y-16607321D01*
X21439333Y-16588274D01*
X21448857Y-16578750D01*
X21467905Y-16569226D01*
X21658381Y-16569226D02*
X21677429Y-16569226D01*
X21696476Y-16578750D01*
X21706000Y-16588274D01*
X21715524Y-16607321D01*
X21725048Y-16645417D01*
X21725048Y-16693036D01*
X21715524Y-16731131D01*
X21706000Y-16750178D01*
X21696476Y-16759702D01*
X21677429Y-16769226D01*
X21658381Y-16769226D01*
X21639333Y-16759702D01*
X21629810Y-16750178D01*
X21620286Y-16731131D01*
X21610762Y-16693036D01*
X21610762Y-16645417D01*
X21620286Y-16607321D01*
X21629810Y-16588274D01*
X21639333Y-16578750D01*
X21658381Y-16569226D01*
X21810762Y-16769226D02*
X21810762Y-16635893D01*
X21810762Y-16654940D02*
X21820286Y-16645417D01*
X21839333Y-16635893D01*
X21867905Y-16635893D01*
X21886952Y-16645417D01*
X21896476Y-16664464D01*
X21896476Y-16769226D01*
X21896476Y-16664464D02*
X21906000Y-16645417D01*
X21925048Y-16635893D01*
X21953619Y-16635893D01*
X21972667Y-16645417D01*
X21982190Y-16664464D01*
X21982190Y-16769226D01*
X22077429Y-16769226D02*
X22077429Y-16635893D01*
X22077429Y-16654940D02*
X22086952Y-16645417D01*
X22106000Y-16635893D01*
X22134571Y-16635893D01*
X22153619Y-16645417D01*
X22163143Y-16664464D01*
X22163143Y-16769226D01*
X22163143Y-16664464D02*
X22172667Y-16645417D01*
X22191714Y-16635893D01*
X22220286Y-16635893D01*
X22239333Y-16645417D01*
X22248857Y-16664464D01*
X22248857Y-16769226D01*
X22639333Y-16559702D02*
X22467905Y-16816845D01*
X22896476Y-16569226D02*
X22915524Y-16569226D01*
X22934571Y-16578750D01*
X22944095Y-16588274D01*
X22953619Y-16607321D01*
X22963143Y-16645417D01*
X22963143Y-16693036D01*
X22953619Y-16731131D01*
X22944095Y-16750178D01*
X22934571Y-16759702D01*
X22915524Y-16769226D01*
X22896476Y-16769226D01*
X22877428Y-16759702D01*
X22867905Y-16750178D01*
X22858381Y-16731131D01*
X22848857Y-16693036D01*
X22848857Y-16645417D01*
X22858381Y-16607321D01*
X22867905Y-16588274D01*
X22877428Y-16578750D01*
X22896476Y-16569226D01*
X23048857Y-16750178D02*
X23058381Y-16759702D01*
X23048857Y-16769226D01*
X23039333Y-16759702D01*
X23048857Y-16750178D01*
X23048857Y-16769226D01*
X23248857Y-16769226D02*
X23134571Y-16769226D01*
X23191714Y-16769226D02*
X23191714Y-16569226D01*
X23172667Y-16597798D01*
X23153619Y-16616845D01*
X23134571Y-16626369D01*
X23325048Y-16588274D02*
X23334571Y-16578750D01*
X23353619Y-16569226D01*
X23401238Y-16569226D01*
X23420286Y-16578750D01*
X23429809Y-16588274D01*
X23439333Y-16607321D01*
X23439333Y-16626369D01*
X23429809Y-16654940D01*
X23315524Y-16769226D01*
X23439333Y-16769226D01*
X23610762Y-16569226D02*
X23572667Y-16569226D01*
X23553619Y-16578750D01*
X23544095Y-16588274D01*
X23525048Y-16616845D01*
X23515524Y-16654940D01*
X23515524Y-16731131D01*
X23525048Y-16750178D01*
X23534571Y-16759702D01*
X23553619Y-16769226D01*
X23591714Y-16769226D01*
X23610762Y-16759702D01*
X23620286Y-16750178D01*
X23629809Y-16731131D01*
X23629809Y-16683512D01*
X23620286Y-16664464D01*
X23610762Y-16654940D01*
X23591714Y-16645417D01*
X23553619Y-16645417D01*
X23534571Y-16654940D01*
X23525048Y-16664464D01*
X23515524Y-16683512D01*
X23753619Y-16569226D02*
X23772667Y-16569226D01*
X23791714Y-16578750D01*
X23801238Y-16588274D01*
X23810762Y-16607321D01*
X23820286Y-16645417D01*
X23820286Y-16693036D01*
X23810762Y-16731131D01*
X23801238Y-16750178D01*
X23791714Y-16759702D01*
X23772667Y-16769226D01*
X23753619Y-16769226D01*
X23734571Y-16759702D01*
X23725048Y-16750178D01*
X23715524Y-16731131D01*
X23706000Y-16693036D01*
X23706000Y-16645417D01*
X23715524Y-16607321D01*
X23725048Y-16588274D01*
X23734571Y-16578750D01*
X23753619Y-16569226D01*
X23896476Y-16569226D02*
X23896476Y-16607321D01*
X23972667Y-16569226D02*
X23972667Y-16607321D01*
X24267905Y-16845417D02*
X24258381Y-16835893D01*
X24239333Y-16807321D01*
X24229809Y-16788274D01*
X24220286Y-16759702D01*
X24210762Y-16712083D01*
X24210762Y-16673988D01*
X24220286Y-16626369D01*
X24229809Y-16597798D01*
X24239333Y-16578750D01*
X24258381Y-16550178D01*
X24267905Y-16540655D01*
X24334571Y-16588274D02*
X24344095Y-16578750D01*
X24363143Y-16569226D01*
X24410762Y-16569226D01*
X24429809Y-16578750D01*
X24439333Y-16588274D01*
X24448857Y-16607321D01*
X24448857Y-16626369D01*
X24439333Y-16654940D01*
X24325048Y-16769226D01*
X24448857Y-16769226D01*
X24686952Y-16769226D02*
X24686952Y-16569226D01*
X24772667Y-16769226D02*
X24772667Y-16664464D01*
X24763143Y-16645417D01*
X24744095Y-16635893D01*
X24715524Y-16635893D01*
X24696476Y-16645417D01*
X24686952Y-16654940D01*
X24896476Y-16769226D02*
X24877428Y-16759702D01*
X24867905Y-16750178D01*
X24858381Y-16731131D01*
X24858381Y-16673988D01*
X24867905Y-16654940D01*
X24877428Y-16645417D01*
X24896476Y-16635893D01*
X24925048Y-16635893D01*
X24944095Y-16645417D01*
X24953619Y-16654940D01*
X24963143Y-16673988D01*
X24963143Y-16731131D01*
X24953619Y-16750178D01*
X24944095Y-16759702D01*
X24925048Y-16769226D01*
X24896476Y-16769226D01*
X25077428Y-16769226D02*
X25058381Y-16759702D01*
X25048857Y-16740655D01*
X25048857Y-16569226D01*
X25229809Y-16759702D02*
X25210762Y-16769226D01*
X25172667Y-16769226D01*
X25153619Y-16759702D01*
X25144095Y-16740655D01*
X25144095Y-16664464D01*
X25153619Y-16645417D01*
X25172667Y-16635893D01*
X25210762Y-16635893D01*
X25229809Y-16645417D01*
X25239333Y-16664464D01*
X25239333Y-16683512D01*
X25144095Y-16702559D01*
X25315524Y-16759702D02*
X25334571Y-16769226D01*
X25372667Y-16769226D01*
X25391714Y-16759702D01*
X25401238Y-16740655D01*
X25401238Y-16731131D01*
X25391714Y-16712083D01*
X25372667Y-16702559D01*
X25344095Y-16702559D01*
X25325048Y-16693036D01*
X25315524Y-16673988D01*
X25315524Y-16664464D01*
X25325048Y-16645417D01*
X25344095Y-16635893D01*
X25372667Y-16635893D01*
X25391714Y-16645417D01*
X25467905Y-16845417D02*
X25477428Y-16835893D01*
X25496476Y-16807321D01*
X25506000Y-16788274D01*
X25515524Y-16759702D01*
X25525048Y-16712083D01*
X25525048Y-16673988D01*
X25515524Y-16626369D01*
X25506000Y-16597798D01*
X25496476Y-16578750D01*
X25477428Y-16550178D01*
X25467905Y-16540655D01*
X25829809Y-16845417D02*
X25820286Y-16835893D01*
X25801238Y-16807321D01*
X25791714Y-16788274D01*
X25782190Y-16759702D01*
X25772667Y-16712083D01*
X25772667Y-16673988D01*
X25782190Y-16626369D01*
X25791714Y-16597798D01*
X25801238Y-16578750D01*
X25820286Y-16550178D01*
X25829809Y-16540655D01*
X25906000Y-16635893D02*
X25906000Y-16769226D01*
X25906000Y-16654940D02*
X25915524Y-16645417D01*
X25934571Y-16635893D01*
X25963143Y-16635893D01*
X25982190Y-16645417D01*
X25991714Y-16664464D01*
X25991714Y-16769226D01*
X26115524Y-16769226D02*
X26096476Y-16759702D01*
X26086952Y-16750178D01*
X26077428Y-16731131D01*
X26077428Y-16673988D01*
X26086952Y-16654940D01*
X26096476Y-16645417D01*
X26115524Y-16635893D01*
X26144095Y-16635893D01*
X26163143Y-16645417D01*
X26172667Y-16654940D01*
X26182190Y-16673988D01*
X26182190Y-16731131D01*
X26172667Y-16750178D01*
X26163143Y-16759702D01*
X26144095Y-16769226D01*
X26115524Y-16769226D01*
X26239333Y-16635893D02*
X26315524Y-16635893D01*
X26267905Y-16569226D02*
X26267905Y-16740655D01*
X26277428Y-16759702D01*
X26296476Y-16769226D01*
X26315524Y-16769226D01*
X26534571Y-16635893D02*
X26534571Y-16835893D01*
X26534571Y-16645417D02*
X26553619Y-16635893D01*
X26591714Y-16635893D01*
X26610762Y-16645417D01*
X26620286Y-16654940D01*
X26629809Y-16673988D01*
X26629809Y-16731131D01*
X26620286Y-16750178D01*
X26610762Y-16759702D01*
X26591714Y-16769226D01*
X26553619Y-16769226D01*
X26534571Y-16759702D01*
X26744095Y-16769226D02*
X26725048Y-16759702D01*
X26715524Y-16740655D01*
X26715524Y-16569226D01*
X26906000Y-16769226D02*
X26906000Y-16664464D01*
X26896476Y-16645417D01*
X26877428Y-16635893D01*
X26839333Y-16635893D01*
X26820286Y-16645417D01*
X26906000Y-16759702D02*
X26886952Y-16769226D01*
X26839333Y-16769226D01*
X26820286Y-16759702D01*
X26810762Y-16740655D01*
X26810762Y-16721607D01*
X26820286Y-16702559D01*
X26839333Y-16693036D01*
X26886952Y-16693036D01*
X26906000Y-16683512D01*
X26972667Y-16635893D02*
X27048857Y-16635893D01*
X27001238Y-16569226D02*
X27001238Y-16740655D01*
X27010762Y-16759702D01*
X27029809Y-16769226D01*
X27048857Y-16769226D01*
X27191714Y-16759702D02*
X27172667Y-16769226D01*
X27134571Y-16769226D01*
X27115524Y-16759702D01*
X27106000Y-16740655D01*
X27106000Y-16664464D01*
X27115524Y-16645417D01*
X27134571Y-16635893D01*
X27172667Y-16635893D01*
X27191714Y-16645417D01*
X27201238Y-16664464D01*
X27201238Y-16683512D01*
X27106000Y-16702559D01*
X27372667Y-16769226D02*
X27372667Y-16569226D01*
X27372667Y-16759702D02*
X27353619Y-16769226D01*
X27315524Y-16769226D01*
X27296476Y-16759702D01*
X27286952Y-16750178D01*
X27277428Y-16731131D01*
X27277428Y-16673988D01*
X27286952Y-16654940D01*
X27296476Y-16645417D01*
X27315524Y-16635893D01*
X27353619Y-16635893D01*
X27372667Y-16645417D01*
X27448857Y-16845417D02*
X27458381Y-16835893D01*
X27477428Y-16807321D01*
X27486952Y-16788274D01*
X27496476Y-16759702D01*
X27506000Y-16712083D01*
X27506000Y-16673988D01*
X27496476Y-16626369D01*
X27486952Y-16597798D01*
X27477428Y-16578750D01*
X27458381Y-16550178D01*
X27448857Y-16540655D01*
M02*
