%TF.GenerationSoftware,KiCad,Pcbnew,6.0.8+dfsg-1*%
%TF.CreationDate,2022-10-17T05:11:54+01:00*%
%TF.ProjectId,CapInrushLimBB-rounded,43617049-6e72-4757-9368-4c696d42422d,rev?*%
%TF.SameCoordinates,Original*%
%TF.FileFunction,Copper,L1,Top*%
%TF.FilePolarity,Positive*%
%FSLAX46Y46*%
G04 Gerber Fmt 4.6, Leading zero omitted, Abs format (unit mm)*
G04 Created by KiCad (PCBNEW 6.0.8+dfsg-1) date 2022-10-17 05:11:54*
%MOMM*%
%LPD*%
G01*
G04 APERTURE LIST*
G04 Aperture macros list*
%AMRotRect*
0 Rectangle, with rotation*
0 The origin of the aperture is its center*
0 $1 length*
0 $2 width*
0 $3 Rotation angle, in degrees counterclockwise*
0 Add horizontal line*
21,1,$1,$2,0,0,$3*%
G04 Aperture macros list end*
%TA.AperFunction,ComponentPad*%
%ADD10R,2.500000X2.500000*%
%TD*%
%TA.AperFunction,ComponentPad*%
%ADD11O,2.500000X2.500000*%
%TD*%
%TA.AperFunction,ComponentPad*%
%ADD12RotRect,1.600000X1.600000X315.000000*%
%TD*%
%TA.AperFunction,ComponentPad*%
%ADD13C,1.600000*%
%TD*%
%TA.AperFunction,ComponentPad*%
%ADD14R,1.600000X1.600000*%
%TD*%
%TA.AperFunction,ComponentPad*%
%ADD15O,1.600000X1.600000*%
%TD*%
%TA.AperFunction,ComponentPad*%
%ADD16C,1.440000*%
%TD*%
%TA.AperFunction,ComponentPad*%
%ADD17C,1.500000*%
%TD*%
%TA.AperFunction,ComponentPad*%
%ADD18R,1.905000X2.000000*%
%TD*%
%TA.AperFunction,ComponentPad*%
%ADD19O,1.905000X2.000000*%
%TD*%
%TA.AperFunction,ComponentPad*%
%ADD20R,3.960000X1.980000*%
%TD*%
%TA.AperFunction,ComponentPad*%
%ADD21O,3.960000X1.980000*%
%TD*%
%TA.AperFunction,ComponentPad*%
%ADD22R,2.000000X1.905000*%
%TD*%
%TA.AperFunction,ComponentPad*%
%ADD23O,2.000000X1.905000*%
%TD*%
%TA.AperFunction,ComponentPad*%
%ADD24R,2.200000X2.200000*%
%TD*%
%TA.AperFunction,ComponentPad*%
%ADD25O,2.200000X2.200000*%
%TD*%
%TA.AperFunction,ViaPad*%
%ADD26C,1.200000*%
%TD*%
%TA.AperFunction,Conductor*%
%ADD27C,0.609600*%
%TD*%
%TA.AperFunction,Conductor*%
%ADD28C,1.905000*%
%TD*%
G04 APERTURE END LIST*
D10*
X236540565Y-128532500D03*
D11*
X230540565Y-130532500D03*
X230540565Y-142732500D03*
X242540565Y-130532500D03*
D12*
X247721682Y-145371323D03*
D13*
X249489449Y-147139090D03*
D14*
X236537500Y-150177500D03*
D15*
X236537500Y-152717500D03*
D13*
X247811815Y-151288750D03*
D15*
X250351815Y-151288750D03*
D16*
X240665000Y-157480000D03*
X243205000Y-157480000D03*
X245745000Y-157480000D03*
D17*
X247176816Y-127518750D03*
X248764316Y-129106250D03*
X250351816Y-127836250D03*
D18*
X219710000Y-140712500D03*
D19*
X222250000Y-140712500D03*
X224790000Y-140712500D03*
D14*
X233368630Y-150812500D03*
D15*
X229558630Y-150812500D03*
D17*
X239712500Y-153352500D03*
X241300000Y-151765000D03*
X240030000Y-150177500D03*
D13*
X244475000Y-150495000D03*
D15*
X244475000Y-153035000D03*
D12*
X230256117Y-155394733D03*
D13*
X232023884Y-157162500D03*
X254638065Y-142240000D03*
D15*
X252098065Y-142240000D03*
D20*
X220980000Y-146142500D03*
D21*
X220980000Y-151142500D03*
D14*
X251304315Y-139223750D03*
D15*
X255114315Y-139223750D03*
D13*
X250507500Y-153987500D03*
X250507500Y-158987500D03*
D22*
X254000000Y-128270000D03*
D23*
X254000000Y-130810000D03*
X254000000Y-133350000D03*
D20*
X220980000Y-128680000D03*
D21*
X220980000Y-133680000D03*
D13*
X246859315Y-140970000D03*
D15*
X246859315Y-138430000D03*
D24*
X246859315Y-135890000D03*
D25*
X246859315Y-133350000D03*
D13*
X254161815Y-147068750D03*
D15*
X254161815Y-149608750D03*
D13*
X236220000Y-157572500D03*
D15*
X236220000Y-155032500D03*
D13*
X250510565Y-136643750D03*
X250510565Y-131643750D03*
D18*
X223681815Y-156933900D03*
D19*
X221141815Y-156933900D03*
X218601815Y-156933900D03*
D26*
X215900000Y-140652500D03*
D27*
X239079032Y-150177500D02*
X240030000Y-150177500D01*
X238442500Y-148457589D02*
X238442500Y-148087410D01*
X238442500Y-150814032D02*
X238442500Y-149540967D01*
X230828630Y-149542500D02*
X229558630Y-150812500D01*
X238442500Y-149351280D02*
X238442500Y-149540967D01*
X238442500Y-148457589D02*
X238442500Y-149351280D01*
X238442500Y-145894315D02*
X238442500Y-147193719D01*
X237401154Y-152491909D02*
X237992403Y-151900661D01*
X238442500Y-147193719D02*
X238442500Y-148087410D01*
X239677285Y-142913279D02*
X246700565Y-135890000D01*
X236856532Y-152717500D02*
X236537500Y-152717500D01*
X233894681Y-148272500D02*
X237363719Y-148272500D01*
X238442474Y-148457589D02*
G75*
G02*
X238126532Y-148588467I-185074J-11D01*
G01*
X237363719Y-148272492D02*
G75*
G02*
X238126532Y-148588467I-19J-1078808D01*
G01*
X238126532Y-148588467D02*
G75*
G02*
X238126532Y-147956532I315968J315967D01*
G01*
X238126515Y-147956515D02*
G75*
G02*
X238442500Y-148087410I130885J-130885D01*
G01*
X238442507Y-147193719D02*
G75*
G02*
X238126532Y-147956532I-1078807J19D01*
G01*
X230828650Y-149542520D02*
G75*
G02*
X233894681Y-148272500I3066050J-3065980D01*
G01*
X236856532Y-152717525D02*
G75*
G03*
X237401154Y-152491909I-32J770225D01*
G01*
X237992382Y-151900640D02*
G75*
G03*
X238442500Y-150814032I-1086582J1086640D01*
G01*
X239079032Y-150177500D02*
G75*
G02*
X238442500Y-149540967I-32J636500D01*
G01*
X238442500Y-150814032D02*
G75*
G02*
X239079032Y-150177500I636500J32D01*
G01*
X238126527Y-147956527D02*
G75*
G02*
X237363719Y-148272500I-762827J762827D01*
G01*
X238442504Y-145894315D02*
G75*
G02*
X239677285Y-142913279I4215796J15D01*
G01*
X238126526Y-148588473D02*
G75*
G02*
X238442500Y-149351280I-762826J-762827D01*
G01*
X234412710Y-153605895D02*
X235704722Y-154897907D01*
X224782967Y-153702434D02*
X224612200Y-153873200D01*
X225907600Y-152006300D02*
X225907600Y-150952200D01*
X232651190Y-152876250D02*
X226777550Y-152876250D01*
X233683065Y-151844375D02*
X233683065Y-150812500D01*
D28*
X225269315Y-151025725D02*
X225269315Y-146576051D01*
D27*
X243476250Y-154033750D02*
X244475000Y-153035000D01*
D28*
X222991179Y-142501863D02*
X223999315Y-143510000D01*
X220983065Y-154146250D02*
X222148790Y-154146250D01*
D27*
X236410342Y-155032500D02*
X236029657Y-155032500D01*
X236410342Y-155032500D02*
X241065054Y-155032500D01*
D28*
X218601815Y-156527500D02*
X218601815Y-156933900D01*
D27*
X226777550Y-152876250D02*
X224793065Y-152876250D01*
D28*
X222249989Y-140712500D02*
G75*
G03*
X222991180Y-142501862I2530511J0D01*
G01*
D27*
X224782945Y-153702412D02*
G75*
G02*
X226777550Y-152876250I1994555J-1994588D01*
G01*
X232651190Y-152876253D02*
G75*
G02*
X234412709Y-153605896I10J-2491147D01*
G01*
X233683050Y-151844375D02*
G75*
G02*
X232651190Y-152876250I-1031850J-25D01*
G01*
D28*
X222148790Y-154146215D02*
G75*
G03*
X225269315Y-151025725I10J3120515D01*
G01*
D27*
X241065054Y-155032451D02*
G75*
G03*
X243476249Y-154033749I46J3409951D01*
G01*
X225907550Y-152006300D02*
G75*
G03*
X226777550Y-152876250I869950J0D01*
G01*
X236029657Y-155032538D02*
G75*
G02*
X235704722Y-154897907I43J459538D01*
G01*
X234412704Y-153605901D02*
G75*
G02*
X233683065Y-151844375I1761496J1761501D01*
G01*
D28*
X225269289Y-146576051D02*
G75*
G03*
X223999315Y-143510000I-4335989J51D01*
G01*
X218601850Y-156527500D02*
G75*
G02*
X220983065Y-154146250I2381250J0D01*
G01*
%TA.AperFunction,Conductor*%
G36*
X256482121Y-125939752D02*
G01*
X256528614Y-125993408D01*
X256540000Y-126045750D01*
X256540000Y-137938613D01*
X256519998Y-138006734D01*
X256466342Y-138053227D01*
X256396068Y-138063331D01*
X256327667Y-138030388D01*
X256190883Y-137901714D01*
X256187475Y-137898508D01*
X256033750Y-137791865D01*
X255983646Y-137757106D01*
X255983643Y-137757104D01*
X255979804Y-137754441D01*
X255975611Y-137752373D01*
X255757308Y-137644718D01*
X255757305Y-137644717D01*
X255753120Y-137642653D01*
X255727363Y-137634408D01*
X255656718Y-137611795D01*
X255512402Y-137565599D01*
X255507795Y-137564849D01*
X255507792Y-137564848D01*
X255267550Y-137525722D01*
X255267551Y-137525722D01*
X255262939Y-137524971D01*
X255140341Y-137523366D01*
X255014888Y-137521724D01*
X255014885Y-137521724D01*
X255010211Y-137521663D01*
X254759770Y-137555746D01*
X254755280Y-137557055D01*
X254755274Y-137557056D01*
X254681945Y-137578430D01*
X254517118Y-137626473D01*
X254512871Y-137628431D01*
X254512868Y-137628432D01*
X254477541Y-137644718D01*
X254287585Y-137732289D01*
X254283676Y-137734852D01*
X254080127Y-137868304D01*
X254080122Y-137868308D01*
X254076214Y-137870870D01*
X254045248Y-137898508D01*
X253897489Y-138030388D01*
X253887648Y-138039171D01*
X253726030Y-138233496D01*
X253594910Y-138449575D01*
X253593101Y-138453889D01*
X253593100Y-138453891D01*
X253578121Y-138489613D01*
X253497169Y-138682661D01*
X253434954Y-138927633D01*
X253409631Y-139179111D01*
X253421758Y-139431570D01*
X253422671Y-139436159D01*
X253469167Y-139669910D01*
X253471067Y-139679463D01*
X253472646Y-139683861D01*
X253472648Y-139683868D01*
X253554892Y-139912936D01*
X253556475Y-139917345D01*
X253676107Y-140139990D01*
X253678902Y-140143734D01*
X253678904Y-140143736D01*
X253824541Y-140338768D01*
X253824546Y-140338774D01*
X253827333Y-140342506D01*
X253830642Y-140345786D01*
X253830647Y-140345792D01*
X253886685Y-140401343D01*
X253961982Y-140475985D01*
X253972841Y-140486750D01*
X254007137Y-140548913D01*
X254002382Y-140619750D01*
X253960083Y-140676771D01*
X253936886Y-140690659D01*
X253903319Y-140706134D01*
X253811335Y-140748539D01*
X253807426Y-140751102D01*
X253603877Y-140884554D01*
X253603872Y-140884558D01*
X253599964Y-140887120D01*
X253451022Y-141020056D01*
X253386882Y-141050492D01*
X253316467Y-141041420D01*
X253280789Y-141017826D01*
X253224819Y-140965174D01*
X253171225Y-140914758D01*
X252981489Y-140783133D01*
X252967396Y-140773356D01*
X252967393Y-140773354D01*
X252963554Y-140770691D01*
X252923832Y-140751102D01*
X252893899Y-140736341D01*
X252886761Y-140732821D01*
X252834512Y-140684753D01*
X252816545Y-140616067D01*
X252838564Y-140548572D01*
X252844556Y-140540538D01*
X252863698Y-140516899D01*
X252949635Y-140348238D01*
X252951343Y-140341864D01*
X252997133Y-140170973D01*
X252997134Y-140170967D01*
X252998627Y-140165395D01*
X253000332Y-140143736D01*
X253004622Y-140089227D01*
X253004622Y-140089220D01*
X253004815Y-140086771D01*
X253004814Y-138360730D01*
X252998627Y-138282105D01*
X252949635Y-138099262D01*
X252902490Y-138006734D01*
X252866695Y-137936482D01*
X252866693Y-137936479D01*
X252863698Y-137930601D01*
X252859544Y-137925471D01*
X252859542Y-137925468D01*
X252748727Y-137788624D01*
X252744572Y-137783493D01*
X252684506Y-137734852D01*
X252602597Y-137668523D01*
X252602593Y-137668520D01*
X252597464Y-137664367D01*
X252591586Y-137661372D01*
X252591583Y-137661370D01*
X252514649Y-137622170D01*
X252428803Y-137578430D01*
X252386235Y-137567024D01*
X252251538Y-137530932D01*
X252251532Y-137530931D01*
X252245960Y-137529438D01*
X252236062Y-137528659D01*
X252169792Y-137523443D01*
X252169785Y-137523443D01*
X252167336Y-137523250D01*
X251733549Y-137523250D01*
X251665428Y-137503248D01*
X251618935Y-137449592D01*
X251608831Y-137379318D01*
X251630336Y-137324979D01*
X251644496Y-137304756D01*
X251649979Y-137295261D01*
X251742055Y-137097803D01*
X251745801Y-137087511D01*
X251802190Y-136877062D01*
X251804093Y-136866269D01*
X251823082Y-136649225D01*
X251823082Y-136638275D01*
X251804093Y-136421231D01*
X251802190Y-136410438D01*
X251745801Y-136199989D01*
X251742055Y-136189697D01*
X251649979Y-135992239D01*
X251644496Y-135982744D01*
X251608056Y-135930702D01*
X251597577Y-135922326D01*
X251584131Y-135929394D01*
X249795488Y-137718037D01*
X249788152Y-137731471D01*
X249811776Y-137791865D01*
X249797787Y-137861469D01*
X249784178Y-137882136D01*
X249756384Y-137916459D01*
X249749089Y-137925468D01*
X249744932Y-137930601D01*
X249658995Y-138099262D01*
X249657287Y-138105635D01*
X249657287Y-138105636D01*
X249611497Y-138276527D01*
X249611496Y-138276533D01*
X249610003Y-138282105D01*
X249609550Y-138287859D01*
X249609550Y-138287861D01*
X249604009Y-138358270D01*
X249603815Y-138360729D01*
X249603816Y-140086770D01*
X249610003Y-140165395D01*
X249611497Y-140170970D01*
X249656458Y-140338768D01*
X249658995Y-140348238D01*
X249744932Y-140516899D01*
X249749084Y-140522026D01*
X249749088Y-140522032D01*
X249857836Y-140656323D01*
X249864058Y-140664007D01*
X249869189Y-140668162D01*
X250006033Y-140778977D01*
X250006037Y-140778980D01*
X250011166Y-140783133D01*
X250017044Y-140786128D01*
X250017047Y-140786130D01*
X250084579Y-140820539D01*
X250179827Y-140869070D01*
X250186200Y-140870778D01*
X250186201Y-140870778D01*
X250357092Y-140916568D01*
X250357098Y-140916569D01*
X250362670Y-140918062D01*
X250368426Y-140918515D01*
X250438838Y-140924057D01*
X250438845Y-140924057D01*
X250441294Y-140924250D01*
X250711816Y-140924250D01*
X250779937Y-140944252D01*
X250826430Y-140997908D01*
X250836534Y-141068182D01*
X250808690Y-141130819D01*
X250769600Y-141177820D01*
X250709780Y-141249746D01*
X250578660Y-141465825D01*
X250576851Y-141470139D01*
X250576850Y-141470141D01*
X250515737Y-141615880D01*
X250480919Y-141698911D01*
X250418704Y-141943883D01*
X250393381Y-142195361D01*
X250393605Y-142200027D01*
X250393605Y-142200033D01*
X250396940Y-142269457D01*
X250405508Y-142447820D01*
X250412791Y-142484436D01*
X250450544Y-142674229D01*
X250454817Y-142695713D01*
X250456396Y-142700111D01*
X250456398Y-142700118D01*
X250514871Y-142862979D01*
X250540225Y-142933595D01*
X250659857Y-143156240D01*
X250662652Y-143159984D01*
X250662654Y-143159986D01*
X250808291Y-143355018D01*
X250808296Y-143355024D01*
X250811083Y-143358756D01*
X250814392Y-143362036D01*
X250814397Y-143362042D01*
X250987265Y-143533408D01*
X250990582Y-143536696D01*
X250994344Y-143539454D01*
X250994347Y-143539457D01*
X251190640Y-143683384D01*
X251194411Y-143686149D01*
X251198546Y-143688325D01*
X251198550Y-143688327D01*
X251278556Y-143730420D01*
X251418091Y-143803833D01*
X251481339Y-143825920D01*
X251646853Y-143883720D01*
X251656709Y-143887162D01*
X251661302Y-143888034D01*
X251900434Y-143933435D01*
X251900437Y-143933435D01*
X251905023Y-143934306D01*
X252025146Y-143939026D01*
X252152910Y-143944046D01*
X252152915Y-143944046D01*
X252157578Y-143944229D01*
X252235722Y-143935671D01*
X252404172Y-143917223D01*
X252404177Y-143917222D01*
X252408825Y-143916713D01*
X252413349Y-143915522D01*
X252648723Y-143853554D01*
X252648726Y-143853553D01*
X252653246Y-143852363D01*
X252885470Y-143752591D01*
X252992839Y-143686149D01*
X253096423Y-143622050D01*
X253096427Y-143622047D01*
X253100396Y-143619591D01*
X253198315Y-143536696D01*
X253289412Y-143459577D01*
X253354328Y-143430828D01*
X253424481Y-143441740D01*
X253459530Y-143466261D01*
X253526739Y-143532886D01*
X253530582Y-143536696D01*
X253534344Y-143539454D01*
X253534347Y-143539457D01*
X253730640Y-143683384D01*
X253734411Y-143686149D01*
X253738546Y-143688325D01*
X253738550Y-143688327D01*
X253818556Y-143730420D01*
X253958091Y-143803833D01*
X254021339Y-143825920D01*
X254186853Y-143883720D01*
X254196709Y-143887162D01*
X254201302Y-143888034D01*
X254440434Y-143933435D01*
X254440437Y-143933435D01*
X254445023Y-143934306D01*
X254565146Y-143939026D01*
X254692910Y-143944046D01*
X254692915Y-143944046D01*
X254697578Y-143944229D01*
X254775722Y-143935671D01*
X254944172Y-143917223D01*
X254944177Y-143917222D01*
X254948825Y-143916713D01*
X254953349Y-143915522D01*
X255188723Y-143853554D01*
X255188726Y-143853553D01*
X255193246Y-143852363D01*
X255425470Y-143752591D01*
X255532839Y-143686149D01*
X255636423Y-143622050D01*
X255636427Y-143622047D01*
X255640396Y-143619591D01*
X255735054Y-143539457D01*
X255829737Y-143459302D01*
X255829738Y-143459301D01*
X255833303Y-143456283D01*
X255918156Y-143359527D01*
X255996871Y-143269771D01*
X255996875Y-143269766D01*
X255999953Y-143266256D01*
X256070718Y-143156240D01*
X256134159Y-143057610D01*
X256134161Y-143057607D01*
X256136684Y-143053684D01*
X256240493Y-142823236D01*
X256285561Y-142663435D01*
X256292731Y-142638013D01*
X256330472Y-142577879D01*
X256394733Y-142547696D01*
X256465112Y-142557046D01*
X256519262Y-142602962D01*
X256540000Y-142672214D01*
X256540000Y-159703000D01*
X256519998Y-159771121D01*
X256466342Y-159817614D01*
X256414000Y-159829000D01*
X251755462Y-159829000D01*
X251687341Y-159808998D01*
X251640848Y-159755342D01*
X251630744Y-159685068D01*
X251644907Y-159644147D01*
X251644588Y-159643998D01*
X251646027Y-159640912D01*
X251646343Y-159639999D01*
X251646914Y-159639011D01*
X251738990Y-159441553D01*
X251742736Y-159431261D01*
X251799125Y-159220812D01*
X251801028Y-159210019D01*
X251820017Y-158992975D01*
X251820017Y-158982025D01*
X251801028Y-158764981D01*
X251799125Y-158754188D01*
X251742736Y-158543739D01*
X251738990Y-158533447D01*
X251646914Y-158335989D01*
X251641431Y-158326494D01*
X251604991Y-158274452D01*
X251594512Y-158266076D01*
X251581066Y-158273144D01*
X250596595Y-159257615D01*
X250534283Y-159291641D01*
X250463468Y-159286576D01*
X250418405Y-159257615D01*
X249433213Y-158272423D01*
X249421438Y-158265993D01*
X249409423Y-158275289D01*
X249373569Y-158326494D01*
X249368086Y-158335989D01*
X249276010Y-158533447D01*
X249272264Y-158543739D01*
X249215875Y-158754188D01*
X249213972Y-158764981D01*
X249194983Y-158982025D01*
X249194983Y-158992975D01*
X249213972Y-159210019D01*
X249215875Y-159220812D01*
X249272264Y-159431261D01*
X249276010Y-159441553D01*
X249368086Y-159639011D01*
X249368657Y-159639999D01*
X249368776Y-159640490D01*
X249370412Y-159643998D01*
X249369707Y-159644327D01*
X249385395Y-159708994D01*
X249362175Y-159776086D01*
X249306369Y-159819974D01*
X249259538Y-159829000D01*
X214438500Y-159829000D01*
X214370379Y-159808998D01*
X214323886Y-159755342D01*
X214312500Y-159703000D01*
X214312500Y-156527500D01*
X216744327Y-156527500D01*
X216747144Y-156527500D01*
X216747349Y-156528961D01*
X216748718Y-156563795D01*
X216748815Y-156568743D01*
X216748815Y-157049716D01*
X216748980Y-157051984D01*
X216748980Y-157051996D01*
X216757228Y-157165660D01*
X216763319Y-157249608D01*
X216764303Y-157254063D01*
X216764303Y-157254066D01*
X216819147Y-157502476D01*
X216821293Y-157512197D01*
X216828998Y-157532533D01*
X216903566Y-157729352D01*
X216916566Y-157763666D01*
X216955810Y-157834319D01*
X217038013Y-157982311D01*
X217047143Y-157998749D01*
X217049915Y-158002381D01*
X217207520Y-158208895D01*
X217207524Y-158208899D01*
X217210287Y-158212520D01*
X217213545Y-158215705D01*
X217213546Y-158215706D01*
X217271565Y-158272423D01*
X217402582Y-158400500D01*
X217619999Y-158558753D01*
X217857984Y-158683963D01*
X217862285Y-158685482D01*
X217862290Y-158685484D01*
X217971793Y-158724153D01*
X218111550Y-158773506D01*
X218204620Y-158791850D01*
X218370915Y-158824627D01*
X218370921Y-158824628D01*
X218375387Y-158825508D01*
X218379940Y-158825735D01*
X218379943Y-158825735D01*
X218639398Y-158838652D01*
X218639404Y-158838652D01*
X218643967Y-158838879D01*
X218911664Y-158813338D01*
X218916094Y-158812254D01*
X218916100Y-158812253D01*
X219109282Y-158764981D01*
X219172870Y-158749421D01*
X219226063Y-158727876D01*
X219417885Y-158650180D01*
X219417886Y-158650180D01*
X219422114Y-158648467D01*
X219654173Y-158512591D01*
X219789876Y-158404067D01*
X219855568Y-158377144D01*
X219925389Y-158390010D01*
X219942719Y-158400600D01*
X220156305Y-158556065D01*
X220156312Y-158556070D01*
X220159999Y-158558753D01*
X220397984Y-158683963D01*
X220402285Y-158685482D01*
X220402290Y-158685484D01*
X220511793Y-158724153D01*
X220651550Y-158773506D01*
X220744620Y-158791850D01*
X220910915Y-158824627D01*
X220910921Y-158824628D01*
X220915387Y-158825508D01*
X220919940Y-158825735D01*
X220919943Y-158825735D01*
X221179398Y-158838652D01*
X221179404Y-158838652D01*
X221183967Y-158838879D01*
X221451664Y-158813338D01*
X221456094Y-158812254D01*
X221456100Y-158812253D01*
X221649282Y-158764981D01*
X221712870Y-158749421D01*
X221766063Y-158727876D01*
X221957885Y-158650180D01*
X221957886Y-158650180D01*
X221962114Y-158648467D01*
X222013825Y-158618189D01*
X222082716Y-158601029D01*
X222149949Y-158623840D01*
X222156774Y-158628992D01*
X222236166Y-158693283D01*
X222242044Y-158696278D01*
X222242047Y-158696280D01*
X222318981Y-158735480D01*
X222404827Y-158779220D01*
X222411200Y-158780928D01*
X222411201Y-158780928D01*
X222582092Y-158826718D01*
X222582098Y-158826719D01*
X222587670Y-158828212D01*
X222593426Y-158828665D01*
X222663838Y-158834207D01*
X222663845Y-158834207D01*
X222666294Y-158834400D01*
X223681403Y-158834400D01*
X224697335Y-158834399D01*
X224746258Y-158830549D01*
X224770206Y-158828665D01*
X224770208Y-158828665D01*
X224775960Y-158828212D01*
X224923113Y-158788783D01*
X224952429Y-158780928D01*
X224952430Y-158780928D01*
X224958803Y-158779220D01*
X225044649Y-158735480D01*
X225121583Y-158696280D01*
X225121586Y-158696278D01*
X225127464Y-158693283D01*
X225132593Y-158689130D01*
X225132597Y-158689127D01*
X225269441Y-158578312D01*
X225274572Y-158574157D01*
X225302983Y-158539073D01*
X225389542Y-158432182D01*
X225389545Y-158432178D01*
X225393698Y-158427049D01*
X225405408Y-158404068D01*
X225467983Y-158281256D01*
X225479635Y-158258388D01*
X225490466Y-158217967D01*
X225527133Y-158081123D01*
X225527134Y-158081117D01*
X225528627Y-158075545D01*
X225532713Y-158023625D01*
X225534622Y-157999377D01*
X225534622Y-157999370D01*
X225534815Y-157996921D01*
X225534814Y-155870880D01*
X225528627Y-155792255D01*
X225486401Y-155634662D01*
X225481343Y-155615786D01*
X225481343Y-155615785D01*
X225479635Y-155609412D01*
X225422679Y-155497629D01*
X225396695Y-155446632D01*
X225396693Y-155446629D01*
X225393698Y-155440751D01*
X225389545Y-155435622D01*
X225389542Y-155435618D01*
X225278727Y-155298774D01*
X225274572Y-155293643D01*
X225148258Y-155191356D01*
X225107907Y-155132943D01*
X225105542Y-155061986D01*
X225141915Y-155001014D01*
X225154325Y-154990902D01*
X225206187Y-154953874D01*
X225520130Y-154687981D01*
X225780251Y-154427862D01*
X225786292Y-154422206D01*
X225787904Y-154420793D01*
X225800958Y-154410779D01*
X225962923Y-154302559D01*
X225977197Y-154294318D01*
X226151906Y-154208164D01*
X226167133Y-154201857D01*
X226280080Y-154163518D01*
X226351602Y-154139241D01*
X226367516Y-154134978D01*
X226423806Y-154123782D01*
X226558569Y-154096978D01*
X226574909Y-154094827D01*
X226715442Y-154085618D01*
X226726975Y-154085391D01*
X226732252Y-154085529D01*
X226741355Y-154085767D01*
X226745843Y-154086298D01*
X226750362Y-154086002D01*
X226777620Y-154086714D01*
X226798698Y-154084776D01*
X226828031Y-154082079D01*
X226839567Y-154081550D01*
X228860239Y-154081550D01*
X228928360Y-154101552D01*
X228974853Y-154155208D01*
X228984957Y-154225482D01*
X228955463Y-154290062D01*
X228949335Y-154296645D01*
X228696545Y-154549436D01*
X228443435Y-154802546D01*
X228392214Y-154862517D01*
X228297567Y-155026449D01*
X228239072Y-155206477D01*
X228238382Y-155213038D01*
X228238382Y-155213040D01*
X228224004Y-155349840D01*
X228219286Y-155394733D01*
X228219976Y-155401298D01*
X228237663Y-155569579D01*
X228239072Y-155582989D01*
X228297567Y-155763017D01*
X228300870Y-155768738D01*
X228300871Y-155768740D01*
X228324929Y-155810409D01*
X228392214Y-155926949D01*
X228395966Y-155931342D01*
X228441815Y-155985025D01*
X228441822Y-155985032D01*
X228443434Y-155986920D01*
X229663930Y-157207415D01*
X229723901Y-157258636D01*
X229887833Y-157353283D01*
X230067861Y-157411778D01*
X230074422Y-157412468D01*
X230074424Y-157412468D01*
X230209324Y-157426646D01*
X230253073Y-157431244D01*
X230318730Y-157458257D01*
X230359360Y-157516478D01*
X230363482Y-157531973D01*
X230380636Y-157618213D01*
X230382215Y-157622611D01*
X230382217Y-157622618D01*
X230437160Y-157775647D01*
X230466044Y-157856095D01*
X230585676Y-158078740D01*
X230588471Y-158082484D01*
X230588473Y-158082486D01*
X230734110Y-158277518D01*
X230734115Y-158277524D01*
X230736902Y-158281256D01*
X230740211Y-158284536D01*
X230740216Y-158284542D01*
X230859899Y-158403185D01*
X230916401Y-158459196D01*
X230920163Y-158461954D01*
X230920166Y-158461957D01*
X231048514Y-158556065D01*
X231120230Y-158608649D01*
X231124365Y-158610825D01*
X231124369Y-158610827D01*
X231195911Y-158648467D01*
X231343910Y-158726333D01*
X231405110Y-158747705D01*
X231522740Y-158788783D01*
X231582528Y-158809662D01*
X231587121Y-158810534D01*
X231826253Y-158855935D01*
X231826256Y-158855935D01*
X231830842Y-158856806D01*
X231950965Y-158861526D01*
X232078729Y-158866546D01*
X232078734Y-158866546D01*
X232083397Y-158866729D01*
X232161541Y-158858171D01*
X232329991Y-158839723D01*
X232329996Y-158839722D01*
X232334644Y-158839213D01*
X232352929Y-158834399D01*
X232574542Y-158776054D01*
X232574545Y-158776053D01*
X232579065Y-158774863D01*
X232811289Y-158675091D01*
X232918658Y-158608649D01*
X233022242Y-158544550D01*
X233022246Y-158544547D01*
X233026215Y-158542091D01*
X233120873Y-158461957D01*
X233215556Y-158381802D01*
X233215557Y-158381801D01*
X233219122Y-158378783D01*
X233258588Y-158333781D01*
X233382690Y-158192271D01*
X233382694Y-158192266D01*
X233385772Y-158188756D01*
X233414571Y-158143983D01*
X233519978Y-157980110D01*
X233519980Y-157980107D01*
X233522503Y-157976184D01*
X233626312Y-157745736D01*
X233694918Y-157502476D01*
X233717484Y-157325097D01*
X233726417Y-157254878D01*
X233726417Y-157254872D01*
X233726815Y-157251747D01*
X233727368Y-157230648D01*
X233729069Y-157165660D01*
X233729152Y-157162500D01*
X233725656Y-157115461D01*
X233710767Y-156915097D01*
X233710766Y-156915093D01*
X233710421Y-156910445D01*
X233654640Y-156663928D01*
X233617625Y-156568743D01*
X233564727Y-156432716D01*
X233564726Y-156432714D01*
X233563034Y-156428363D01*
X233558505Y-156420438D01*
X233494968Y-156309273D01*
X233437615Y-156208926D01*
X233339727Y-156084756D01*
X233284031Y-156014106D01*
X233284028Y-156014103D01*
X233281139Y-156010438D01*
X233097044Y-155837258D01*
X232889373Y-155693191D01*
X232866658Y-155681989D01*
X232666877Y-155583468D01*
X232666874Y-155583467D01*
X232662689Y-155581403D01*
X232614205Y-155565883D01*
X232551133Y-155545694D01*
X232421971Y-155504349D01*
X232417355Y-155503597D01*
X232417350Y-155503596D01*
X232397417Y-155500349D01*
X232333398Y-155469657D01*
X232296135Y-155409225D01*
X232292362Y-155389158D01*
X232273852Y-155213040D01*
X232273852Y-155213038D01*
X232273162Y-155206477D01*
X232214667Y-155026449D01*
X232194138Y-154990891D01*
X232122908Y-154867519D01*
X232122908Y-154867518D01*
X232120020Y-154862517D01*
X232068800Y-154802546D01*
X231562899Y-154296645D01*
X231528874Y-154234333D01*
X231533938Y-154163518D01*
X231576485Y-154106682D01*
X231643005Y-154081871D01*
X231651994Y-154081550D01*
X232554574Y-154081550D01*
X232572655Y-154082854D01*
X232584155Y-154084522D01*
X232584163Y-154084523D01*
X232587827Y-154085054D01*
X232615007Y-154085766D01*
X232619509Y-154086299D01*
X232624030Y-154086003D01*
X232651178Y-154086714D01*
X232670746Y-154084916D01*
X232692151Y-154084776D01*
X232842461Y-154096605D01*
X232861989Y-154099698D01*
X233038910Y-154142173D01*
X233057704Y-154148280D01*
X233094494Y-154163518D01*
X233225798Y-154217906D01*
X233243415Y-154226882D01*
X233398547Y-154321947D01*
X233414542Y-154333568D01*
X233517860Y-154421809D01*
X233527429Y-154430890D01*
X233531871Y-154435571D01*
X233534670Y-154439122D01*
X233538071Y-154442105D01*
X233556784Y-154461824D01*
X233595754Y-154494235D01*
X233604269Y-154502005D01*
X234035415Y-154933151D01*
X234045893Y-154945037D01*
X234052054Y-154952982D01*
X234065641Y-154970505D01*
X234067931Y-154972894D01*
X234067932Y-154972895D01*
X234182589Y-155092501D01*
X234186678Y-155096977D01*
X234266902Y-155189157D01*
X234271134Y-155194288D01*
X234330493Y-155270278D01*
X234334388Y-155275543D01*
X234383313Y-155345403D01*
X234386282Y-155349839D01*
X234435038Y-155426145D01*
X234436545Y-155428566D01*
X234493195Y-155521938D01*
X234493673Y-155522725D01*
X234558254Y-155628925D01*
X234563420Y-155637317D01*
X234563544Y-155637516D01*
X234569587Y-155647080D01*
X234641715Y-155759675D01*
X234651074Y-155773986D01*
X234651323Y-155774359D01*
X234661265Y-155788942D01*
X234746839Y-155911873D01*
X234747004Y-155912105D01*
X234747015Y-155912120D01*
X234758611Y-155928380D01*
X234758820Y-155928673D01*
X234759129Y-155929096D01*
X234771044Y-155945035D01*
X234771210Y-155945252D01*
X234868904Y-156072998D01*
X234868909Y-156073004D01*
X234871078Y-156075840D01*
X234890716Y-156096244D01*
X234900880Y-156108217D01*
X234933018Y-156151256D01*
X234936327Y-156154536D01*
X234936332Y-156154542D01*
X234992526Y-156210247D01*
X235026822Y-156272410D01*
X235022067Y-156343247D01*
X234994938Y-156386488D01*
X234993333Y-156387921D01*
X234831715Y-156582246D01*
X234700595Y-156798325D01*
X234698786Y-156802639D01*
X234698785Y-156802641D01*
X234623364Y-156982501D01*
X234602854Y-157031411D01*
X234601703Y-157035943D01*
X234601702Y-157035946D01*
X234597266Y-157053413D01*
X234540639Y-157276383D01*
X234515316Y-157527861D01*
X234527443Y-157780320D01*
X234528356Y-157784909D01*
X234571614Y-158002381D01*
X234576752Y-158028213D01*
X234578331Y-158032611D01*
X234578333Y-158032618D01*
X234644880Y-158217967D01*
X234662160Y-158266095D01*
X234781792Y-158488740D01*
X234784587Y-158492484D01*
X234784589Y-158492486D01*
X234930226Y-158687518D01*
X234930231Y-158687524D01*
X234933018Y-158691256D01*
X234936327Y-158694536D01*
X234936332Y-158694542D01*
X235099140Y-158855935D01*
X235112517Y-158869196D01*
X235116279Y-158871954D01*
X235116282Y-158871957D01*
X235266397Y-158982025D01*
X235316346Y-159018649D01*
X235320481Y-159020825D01*
X235320485Y-159020827D01*
X235437952Y-159082629D01*
X235540026Y-159136333D01*
X235673709Y-159183017D01*
X235751031Y-159210019D01*
X235778644Y-159219662D01*
X235783237Y-159220534D01*
X236022369Y-159265935D01*
X236022372Y-159265935D01*
X236026958Y-159266806D01*
X236147081Y-159271526D01*
X236274845Y-159276546D01*
X236274850Y-159276546D01*
X236279513Y-159276729D01*
X236357657Y-159268171D01*
X236526107Y-159249723D01*
X236526112Y-159249722D01*
X236530760Y-159249213D01*
X236679631Y-159210019D01*
X236770658Y-159186054D01*
X236770661Y-159186053D01*
X236775181Y-159184863D01*
X236928848Y-159118842D01*
X237003111Y-159086936D01*
X237003113Y-159086935D01*
X237007405Y-159085091D01*
X237114774Y-159018649D01*
X237218358Y-158954550D01*
X237218362Y-158954547D01*
X237222331Y-158952091D01*
X237316989Y-158871957D01*
X237411672Y-158791802D01*
X237411673Y-158791801D01*
X237415238Y-158788783D01*
X237468652Y-158727876D01*
X237578806Y-158602271D01*
X237578810Y-158602266D01*
X237581888Y-158598756D01*
X237613334Y-158549868D01*
X237716094Y-158390110D01*
X237716096Y-158390107D01*
X237718619Y-158386184D01*
X237822428Y-158155736D01*
X237891034Y-157912476D01*
X237907263Y-157784909D01*
X237922533Y-157664878D01*
X237922533Y-157664872D01*
X237922931Y-157661747D01*
X237925268Y-157572500D01*
X237918801Y-157485475D01*
X237906883Y-157325097D01*
X237906882Y-157325093D01*
X237906537Y-157320445D01*
X237850756Y-157073928D01*
X237842227Y-157051996D01*
X237760843Y-156842716D01*
X237760842Y-156842714D01*
X237759150Y-156838363D01*
X237751166Y-156824393D01*
X237636050Y-156622984D01*
X237633731Y-156618926D01*
X237509513Y-156461357D01*
X237483048Y-156395478D01*
X237496401Y-156325748D01*
X237545333Y-156274307D01*
X237585750Y-156259415D01*
X237601097Y-156256602D01*
X237605076Y-156255873D01*
X237615603Y-156254401D01*
X237690778Y-156247102D01*
X237699388Y-156246564D01*
X237788806Y-156244046D01*
X237831795Y-156242836D01*
X237831799Y-156242836D01*
X237834453Y-156242761D01*
X237837088Y-156242463D01*
X237837098Y-156242462D01*
X237871210Y-156238600D01*
X237885383Y-156237800D01*
X239321526Y-156237800D01*
X239389647Y-156257802D01*
X239436140Y-156311458D01*
X239446244Y-156381732D01*
X239417337Y-156445630D01*
X239349934Y-156524549D01*
X239216659Y-156742033D01*
X239214766Y-156746603D01*
X239214764Y-156746607D01*
X239146900Y-156910445D01*
X239119047Y-156977689D01*
X239117892Y-156982501D01*
X239064316Y-157205663D01*
X239059502Y-157225714D01*
X239039489Y-157480000D01*
X239059502Y-157734286D01*
X239060656Y-157739093D01*
X239060657Y-157739099D01*
X239085940Y-157844408D01*
X239119047Y-157982311D01*
X239120940Y-157986882D01*
X239120941Y-157986884D01*
X239214403Y-158212520D01*
X239216659Y-158217967D01*
X239349934Y-158435451D01*
X239515590Y-158629410D01*
X239709549Y-158795066D01*
X239927033Y-158928341D01*
X239931603Y-158930234D01*
X239931607Y-158930236D01*
X240158116Y-159024059D01*
X240162689Y-159025953D01*
X240247889Y-159046408D01*
X240405901Y-159084343D01*
X240405907Y-159084344D01*
X240410714Y-159085498D01*
X240665000Y-159105511D01*
X240919286Y-159085498D01*
X240924093Y-159084344D01*
X240924099Y-159084343D01*
X241082111Y-159046408D01*
X241167311Y-159025953D01*
X241171884Y-159024059D01*
X241398393Y-158930236D01*
X241398397Y-158930234D01*
X241402967Y-158928341D01*
X241620451Y-158795066D01*
X241814410Y-158629410D01*
X241917573Y-158508621D01*
X242540933Y-158508621D01*
X242550227Y-158520635D01*
X242584146Y-158544385D01*
X242593641Y-158549868D01*
X242778413Y-158636028D01*
X242788705Y-158639774D01*
X242985632Y-158692540D01*
X242996425Y-158694443D01*
X243199525Y-158712212D01*
X243210475Y-158712212D01*
X243413575Y-158694443D01*
X243424368Y-158692540D01*
X243621295Y-158639774D01*
X243631587Y-158636028D01*
X243816359Y-158549868D01*
X243825854Y-158544385D01*
X243860607Y-158520051D01*
X243868983Y-158509572D01*
X243868483Y-158508621D01*
X245080933Y-158508621D01*
X245090227Y-158520635D01*
X245124146Y-158544385D01*
X245133641Y-158549868D01*
X245318413Y-158636028D01*
X245328705Y-158639774D01*
X245525632Y-158692540D01*
X245536425Y-158694443D01*
X245739525Y-158712212D01*
X245750475Y-158712212D01*
X245953575Y-158694443D01*
X245964368Y-158692540D01*
X246161295Y-158639774D01*
X246171587Y-158636028D01*
X246356359Y-158549868D01*
X246365854Y-158544385D01*
X246400607Y-158520051D01*
X246408983Y-158509572D01*
X246401916Y-158496127D01*
X245757811Y-157852021D01*
X245743868Y-157844408D01*
X245742034Y-157844539D01*
X245735420Y-157848790D01*
X245087360Y-158496851D01*
X245080933Y-158508621D01*
X243868483Y-158508621D01*
X243861916Y-158496127D01*
X243217811Y-157852021D01*
X243203868Y-157844408D01*
X243202034Y-157844539D01*
X243195420Y-157848790D01*
X242547360Y-158496851D01*
X242540933Y-158508621D01*
X241917573Y-158508621D01*
X241980066Y-158435451D01*
X242113341Y-158217967D01*
X242117795Y-158207215D01*
X242162344Y-158151935D01*
X242175580Y-158143903D01*
X242188873Y-158136916D01*
X242832979Y-157492811D01*
X242839356Y-157481132D01*
X243569408Y-157481132D01*
X243569539Y-157482966D01*
X243573790Y-157489580D01*
X244221851Y-158137640D01*
X244233621Y-158144067D01*
X244245635Y-158134772D01*
X244269387Y-158100850D01*
X244274865Y-158091364D01*
X244360805Y-157907065D01*
X244407722Y-157853780D01*
X244476000Y-157834319D01*
X244543960Y-157854861D01*
X244589195Y-157907065D01*
X244675135Y-158091364D01*
X244680613Y-158100850D01*
X244704949Y-158135607D01*
X244715428Y-158143983D01*
X244728872Y-158136917D01*
X245372979Y-157492811D01*
X245379356Y-157481132D01*
X246109408Y-157481132D01*
X246109539Y-157482966D01*
X246113790Y-157489580D01*
X246761851Y-158137640D01*
X246773621Y-158144067D01*
X246785635Y-158134772D01*
X246809387Y-158100850D01*
X246814865Y-158091364D01*
X246901028Y-157906587D01*
X246903248Y-157900488D01*
X249786076Y-157900488D01*
X249793144Y-157913934D01*
X250494688Y-158615478D01*
X250508632Y-158623092D01*
X250510465Y-158622961D01*
X250517080Y-158618710D01*
X251222577Y-157913213D01*
X251229007Y-157901438D01*
X251219711Y-157889423D01*
X251168506Y-157853569D01*
X251159011Y-157848086D01*
X250961553Y-157756010D01*
X250951261Y-157752264D01*
X250740812Y-157695875D01*
X250730019Y-157693972D01*
X250512975Y-157674983D01*
X250502025Y-157674983D01*
X250284981Y-157693972D01*
X250274188Y-157695875D01*
X250063739Y-157752264D01*
X250053447Y-157756010D01*
X249855989Y-157848086D01*
X249846494Y-157853569D01*
X249794452Y-157890009D01*
X249786076Y-157900488D01*
X246903248Y-157900488D01*
X246904774Y-157896295D01*
X246957540Y-157699368D01*
X246959443Y-157688575D01*
X246977212Y-157485475D01*
X246977212Y-157474525D01*
X246959443Y-157271425D01*
X246957540Y-157260632D01*
X246904774Y-157063705D01*
X246901028Y-157053413D01*
X246814865Y-156868636D01*
X246809387Y-156859150D01*
X246785051Y-156824393D01*
X246774572Y-156816017D01*
X246761128Y-156823083D01*
X246117021Y-157467189D01*
X246109408Y-157481132D01*
X245379356Y-157481132D01*
X245380592Y-157478868D01*
X245380461Y-157477034D01*
X245376210Y-157470420D01*
X244728149Y-156822360D01*
X244716379Y-156815933D01*
X244704365Y-156825228D01*
X244680613Y-156859150D01*
X244675135Y-156868636D01*
X244589195Y-157052935D01*
X244542278Y-157106220D01*
X244474000Y-157125681D01*
X244406040Y-157105139D01*
X244360805Y-157052935D01*
X244274865Y-156868636D01*
X244269387Y-156859150D01*
X244245051Y-156824393D01*
X244234572Y-156816017D01*
X244221128Y-156823083D01*
X243577021Y-157467189D01*
X243569408Y-157481132D01*
X242839356Y-157481132D01*
X242840592Y-157478868D01*
X242840461Y-157477034D01*
X242836210Y-157470420D01*
X242188151Y-156822362D01*
X242173487Y-156814355D01*
X242123285Y-156764153D01*
X242117462Y-156751983D01*
X242115236Y-156746607D01*
X242113341Y-156742033D01*
X241980066Y-156524549D01*
X241916761Y-156450428D01*
X242541017Y-156450428D01*
X242548083Y-156463872D01*
X243192189Y-157107979D01*
X243206132Y-157115592D01*
X243207966Y-157115461D01*
X243214580Y-157111210D01*
X243862640Y-156463149D01*
X243869067Y-156451379D01*
X243868331Y-156450428D01*
X245081017Y-156450428D01*
X245088083Y-156463872D01*
X245732189Y-157107979D01*
X245746132Y-157115592D01*
X245747966Y-157115461D01*
X245754580Y-157111210D01*
X246402640Y-156463149D01*
X246409067Y-156451379D01*
X246399773Y-156439365D01*
X246365854Y-156415615D01*
X246356359Y-156410132D01*
X246171587Y-156323972D01*
X246161295Y-156320226D01*
X245964368Y-156267460D01*
X245953575Y-156265557D01*
X245750475Y-156247788D01*
X245739525Y-156247788D01*
X245536425Y-156265557D01*
X245525632Y-156267460D01*
X245328705Y-156320226D01*
X245318413Y-156323972D01*
X245133636Y-156410135D01*
X245124150Y-156415613D01*
X245089393Y-156439949D01*
X245081017Y-156450428D01*
X243868331Y-156450428D01*
X243859773Y-156439365D01*
X243825854Y-156415615D01*
X243816359Y-156410132D01*
X243631587Y-156323972D01*
X243621295Y-156320226D01*
X243424368Y-156267460D01*
X243413575Y-156265557D01*
X243210475Y-156247788D01*
X243199525Y-156247788D01*
X242996425Y-156265557D01*
X242985632Y-156267460D01*
X242788705Y-156320226D01*
X242778413Y-156323972D01*
X242593636Y-156410135D01*
X242584150Y-156415613D01*
X242549393Y-156439949D01*
X242541017Y-156450428D01*
X241916761Y-156450428D01*
X241897916Y-156428363D01*
X241845106Y-156366530D01*
X241816075Y-156301740D01*
X241826680Y-156231540D01*
X241873555Y-156178218D01*
X241913648Y-156161686D01*
X242258004Y-156085350D01*
X242258011Y-156085348D01*
X242260682Y-156084756D01*
X242645040Y-155963576D01*
X243017374Y-155809357D01*
X243039175Y-155798009D01*
X243348415Y-155637036D01*
X243374851Y-155623275D01*
X243377160Y-155621804D01*
X243377174Y-155621796D01*
X243459142Y-155569579D01*
X243471120Y-155562838D01*
X243499355Y-155548917D01*
X243499365Y-155548911D01*
X243502323Y-155547453D01*
X243725856Y-155406443D01*
X243725935Y-155406393D01*
X243735632Y-155400188D01*
X243735678Y-155400158D01*
X243735722Y-155400130D01*
X243735793Y-155400084D01*
X243735857Y-155400042D01*
X243743470Y-155395048D01*
X243752351Y-155389158D01*
X243939827Y-155264810D01*
X243939846Y-155264797D01*
X243939964Y-155264719D01*
X243943176Y-155262549D01*
X243952401Y-155256319D01*
X243952468Y-155256273D01*
X243952581Y-155256197D01*
X243952697Y-155256117D01*
X243952756Y-155256077D01*
X244121213Y-155140219D01*
X244124986Y-155137609D01*
X244125092Y-155137536D01*
X244233726Y-155061986D01*
X244269181Y-155037329D01*
X244270422Y-155036477D01*
X244338037Y-154990642D01*
X244390372Y-154955167D01*
X244393707Y-154952982D01*
X244425062Y-154933151D01*
X244495559Y-154888564D01*
X244500759Y-154885449D01*
X244597284Y-154830761D01*
X244603608Y-154827413D01*
X244711064Y-154774358D01*
X244717443Y-154771426D01*
X244782065Y-154743883D01*
X244852264Y-154713963D01*
X244857887Y-154711725D01*
X245044534Y-154642602D01*
X245047445Y-154641169D01*
X245047458Y-154641163D01*
X245063994Y-154633020D01*
X245069910Y-154630294D01*
X245262405Y-154547591D01*
X245357402Y-154488805D01*
X245473358Y-154417050D01*
X245473362Y-154417047D01*
X245477331Y-154414591D01*
X245585706Y-154322845D01*
X245666672Y-154254302D01*
X245666673Y-154254301D01*
X245670238Y-154251283D01*
X245715292Y-154199909D01*
X245833806Y-154064771D01*
X245833810Y-154064766D01*
X245836888Y-154061256D01*
X245882297Y-153990660D01*
X245971094Y-153852610D01*
X245971096Y-153852607D01*
X245973619Y-153848684D01*
X246077428Y-153618236D01*
X246146034Y-153374976D01*
X246158205Y-153279302D01*
X246177533Y-153127378D01*
X246177533Y-153127372D01*
X246177931Y-153124247D01*
X246178451Y-153104412D01*
X246179245Y-153074053D01*
X246180268Y-153035000D01*
X246177132Y-152992796D01*
X246161883Y-152787597D01*
X246161882Y-152787593D01*
X246161537Y-152782945D01*
X246105756Y-152536428D01*
X246104063Y-152532074D01*
X246015843Y-152305216D01*
X246015842Y-152305214D01*
X246014150Y-152300863D01*
X245888731Y-152081426D01*
X245782784Y-151947033D01*
X245735147Y-151886606D01*
X245735144Y-151886603D01*
X245732255Y-151882938D01*
X245704412Y-151856746D01*
X245668500Y-151795502D01*
X245671400Y-151724564D01*
X245696013Y-151681893D01*
X245833806Y-151524771D01*
X245833810Y-151524766D01*
X245836888Y-151521256D01*
X245849816Y-151501158D01*
X245870441Y-151469092D01*
X245888280Y-151441358D01*
X245941954Y-151394887D01*
X246012232Y-151384811D01*
X246076801Y-151414329D01*
X246115161Y-151474071D01*
X246119091Y-151493096D01*
X246119258Y-151496570D01*
X246142568Y-151613756D01*
X246166667Y-151734910D01*
X246168567Y-151744463D01*
X246170146Y-151748861D01*
X246170148Y-151748868D01*
X246214352Y-151871986D01*
X246253975Y-151982345D01*
X246373607Y-152204990D01*
X246376402Y-152208734D01*
X246376404Y-152208736D01*
X246522041Y-152403768D01*
X246522046Y-152403774D01*
X246524833Y-152407506D01*
X246528142Y-152410786D01*
X246528147Y-152410792D01*
X246658448Y-152539961D01*
X246704332Y-152585446D01*
X246708094Y-152588204D01*
X246708097Y-152588207D01*
X246843174Y-152687249D01*
X246908161Y-152734899D01*
X246912296Y-152737075D01*
X246912300Y-152737077D01*
X246999481Y-152782945D01*
X247131841Y-152852583D01*
X247184385Y-152870932D01*
X247331283Y-152922231D01*
X247370459Y-152935912D01*
X247375052Y-152936784D01*
X247614184Y-152982185D01*
X247614187Y-152982185D01*
X247618773Y-152983056D01*
X247738896Y-152987776D01*
X247866660Y-152992796D01*
X247866665Y-152992796D01*
X247871328Y-152992979D01*
X247950365Y-152984323D01*
X248117922Y-152965973D01*
X248117927Y-152965972D01*
X248122575Y-152965463D01*
X248275157Y-152925292D01*
X248362473Y-152902304D01*
X248362476Y-152902303D01*
X248366996Y-152901113D01*
X248599220Y-152801341D01*
X248706589Y-152734899D01*
X248810173Y-152670800D01*
X248810177Y-152670797D01*
X248814146Y-152668341D01*
X248908804Y-152588207D01*
X249003487Y-152508052D01*
X249003488Y-152508051D01*
X249007053Y-152505033D01*
X249072487Y-152430420D01*
X249170621Y-152318521D01*
X249170625Y-152318516D01*
X249173703Y-152315006D01*
X249208554Y-152260825D01*
X249227948Y-152230673D01*
X249281622Y-152184201D01*
X249351900Y-152174125D01*
X249416469Y-152203643D01*
X249423014Y-152209740D01*
X249503940Y-152290666D01*
X249512353Y-152297726D01*
X249587757Y-152350524D01*
X249632086Y-152405981D01*
X249639395Y-152476600D01*
X249607365Y-152539961D01*
X249584572Y-152559109D01*
X249473312Y-152632054D01*
X249473307Y-152632058D01*
X249469399Y-152634620D01*
X249438433Y-152662258D01*
X249285362Y-152798879D01*
X249280833Y-152802921D01*
X249119215Y-152997246D01*
X248988095Y-153213325D01*
X248986286Y-153217639D01*
X248986285Y-153217641D01*
X248903762Y-153414437D01*
X248890354Y-153446411D01*
X248889203Y-153450943D01*
X248889202Y-153450946D01*
X248872406Y-153517081D01*
X248828139Y-153691383D01*
X248802816Y-153942861D01*
X248803040Y-153947527D01*
X248803040Y-153947533D01*
X248804809Y-153984351D01*
X248814943Y-154195320D01*
X248815856Y-154199909D01*
X248862718Y-154435499D01*
X248864252Y-154443213D01*
X248865831Y-154447611D01*
X248865833Y-154447618D01*
X248931419Y-154630290D01*
X248949660Y-154681095D01*
X249069292Y-154903740D01*
X249072087Y-154907484D01*
X249072089Y-154907486D01*
X249217726Y-155102518D01*
X249217731Y-155102524D01*
X249220518Y-155106256D01*
X249223827Y-155109536D01*
X249223832Y-155109542D01*
X249391288Y-155275543D01*
X249400017Y-155284196D01*
X249403779Y-155286954D01*
X249403782Y-155286957D01*
X249570536Y-155409225D01*
X249603846Y-155433649D01*
X249607981Y-155435825D01*
X249607985Y-155435827D01*
X249695451Y-155481845D01*
X249827526Y-155551333D01*
X249961209Y-155598017D01*
X250049716Y-155628925D01*
X250066144Y-155634662D01*
X250070737Y-155635534D01*
X250309869Y-155680935D01*
X250309872Y-155680935D01*
X250314458Y-155681806D01*
X250434581Y-155686526D01*
X250562345Y-155691546D01*
X250562350Y-155691546D01*
X250567013Y-155691729D01*
X250645157Y-155683171D01*
X250813607Y-155664723D01*
X250813612Y-155664722D01*
X250818260Y-155664213D01*
X250822784Y-155663022D01*
X251058158Y-155601054D01*
X251058161Y-155601053D01*
X251062681Y-155599863D01*
X251281678Y-155505774D01*
X251290611Y-155501936D01*
X251290613Y-155501935D01*
X251294905Y-155500091D01*
X251402274Y-155433649D01*
X251505858Y-155369550D01*
X251505862Y-155369547D01*
X251509831Y-155367091D01*
X251604489Y-155286957D01*
X251699172Y-155206802D01*
X251699173Y-155206801D01*
X251702738Y-155203783D01*
X251728404Y-155174517D01*
X251866306Y-155017271D01*
X251866310Y-155017266D01*
X251869388Y-155013756D01*
X251907794Y-154954048D01*
X252003594Y-154805110D01*
X252003596Y-154805107D01*
X252006119Y-154801184D01*
X252109928Y-154570736D01*
X252178534Y-154327476D01*
X252194763Y-154199909D01*
X252210033Y-154079878D01*
X252210033Y-154079872D01*
X252210431Y-154076747D01*
X252212768Y-153987500D01*
X252200856Y-153827200D01*
X252194383Y-153740097D01*
X252194382Y-153740093D01*
X252194037Y-153735445D01*
X252138256Y-153488928D01*
X252136563Y-153484574D01*
X252048343Y-153257716D01*
X252048342Y-153257714D01*
X252046650Y-153253363D01*
X252040184Y-153242049D01*
X251923550Y-153037984D01*
X251921231Y-153033926D01*
X251836813Y-152926843D01*
X251767647Y-152839106D01*
X251767644Y-152839103D01*
X251764755Y-152835438D01*
X251580660Y-152662258D01*
X251431972Y-152559109D01*
X251376831Y-152520856D01*
X251376828Y-152520854D01*
X251372989Y-152518191D01*
X251262245Y-152463578D01*
X251209996Y-152415509D01*
X251192030Y-152346824D01*
X251214050Y-152279328D01*
X251228879Y-152261477D01*
X251353731Y-152136625D01*
X251360787Y-152128217D01*
X251485746Y-151949757D01*
X251491229Y-151940261D01*
X251583305Y-151742803D01*
X251587051Y-151732511D01*
X251633209Y-151560247D01*
X251632873Y-151546151D01*
X251624931Y-151542750D01*
X250223815Y-151542750D01*
X250155694Y-151522748D01*
X250109201Y-151469092D01*
X250097815Y-151416750D01*
X250097815Y-151016635D01*
X250605815Y-151016635D01*
X250610290Y-151031874D01*
X250611680Y-151033079D01*
X250619363Y-151034750D01*
X251619782Y-151034750D01*
X251633313Y-151030777D01*
X251634542Y-151022228D01*
X251587051Y-150844989D01*
X251583305Y-150834697D01*
X251491229Y-150637239D01*
X251485746Y-150627743D01*
X251360787Y-150449283D01*
X251353731Y-150440875D01*
X251199690Y-150286834D01*
X251191282Y-150279778D01*
X251012822Y-150154819D01*
X251003326Y-150149336D01*
X250805868Y-150057260D01*
X250795576Y-150053514D01*
X250623312Y-150007356D01*
X250609216Y-150007692D01*
X250605815Y-150015634D01*
X250605815Y-151016635D01*
X250097815Y-151016635D01*
X250097815Y-150020783D01*
X250093842Y-150007252D01*
X250085293Y-150006023D01*
X249908054Y-150053514D01*
X249897762Y-150057260D01*
X249700304Y-150149336D01*
X249690808Y-150154819D01*
X249512348Y-150279778D01*
X249503940Y-150286834D01*
X249425850Y-150364924D01*
X249363538Y-150398950D01*
X249292723Y-150393885D01*
X249235887Y-150351338D01*
X249230482Y-150343107D01*
X249230479Y-150343109D01*
X249227866Y-150339235D01*
X249225546Y-150335176D01*
X249104171Y-150181213D01*
X249071962Y-150140356D01*
X249071959Y-150140353D01*
X249069070Y-150136688D01*
X248884975Y-149963508D01*
X248757784Y-149875272D01*
X252879088Y-149875272D01*
X252926579Y-150052511D01*
X252930325Y-150062803D01*
X253022401Y-150260261D01*
X253027884Y-150269757D01*
X253152843Y-150448217D01*
X253159899Y-150456625D01*
X253313940Y-150610666D01*
X253322348Y-150617722D01*
X253500808Y-150742681D01*
X253510304Y-150748164D01*
X253707762Y-150840240D01*
X253718054Y-150843986D01*
X253890318Y-150890144D01*
X253904414Y-150889808D01*
X253907815Y-150881866D01*
X253907815Y-150876717D01*
X254415815Y-150876717D01*
X254419788Y-150890248D01*
X254428337Y-150891477D01*
X254605576Y-150843986D01*
X254615868Y-150840240D01*
X254813326Y-150748164D01*
X254822822Y-150742681D01*
X255001282Y-150617722D01*
X255009690Y-150610666D01*
X255163731Y-150456625D01*
X255170787Y-150448217D01*
X255295746Y-150269757D01*
X255301229Y-150260261D01*
X255393305Y-150062803D01*
X255397051Y-150052511D01*
X255443209Y-149880247D01*
X255442873Y-149866151D01*
X255434931Y-149862750D01*
X254433930Y-149862750D01*
X254418691Y-149867225D01*
X254417486Y-149868615D01*
X254415815Y-149876298D01*
X254415815Y-150876717D01*
X253907815Y-150876717D01*
X253907815Y-149880865D01*
X253903340Y-149865626D01*
X253901950Y-149864421D01*
X253894267Y-149862750D01*
X252893848Y-149862750D01*
X252880317Y-149866723D01*
X252879088Y-149875272D01*
X248757784Y-149875272D01*
X248737247Y-149861025D01*
X248681146Y-149822106D01*
X248681143Y-149822104D01*
X248677304Y-149819441D01*
X248673111Y-149817373D01*
X248454808Y-149709718D01*
X248454805Y-149709717D01*
X248450620Y-149707653D01*
X248406194Y-149693432D01*
X248316425Y-149664697D01*
X248209902Y-149630599D01*
X248205295Y-149629849D01*
X248205292Y-149629848D01*
X247965050Y-149590722D01*
X247965051Y-149590722D01*
X247960439Y-149589971D01*
X247837841Y-149588366D01*
X247712388Y-149586724D01*
X247712385Y-149586724D01*
X247707711Y-149586663D01*
X247457270Y-149620746D01*
X247452780Y-149622055D01*
X247452774Y-149622056D01*
X247349666Y-149652110D01*
X247214618Y-149691473D01*
X247210371Y-149693431D01*
X247210368Y-149693432D01*
X247175041Y-149709718D01*
X246985085Y-149797289D01*
X246981176Y-149799852D01*
X246777627Y-149933304D01*
X246777622Y-149933308D01*
X246773714Y-149935870D01*
X246742748Y-149963508D01*
X246637708Y-150057260D01*
X246585148Y-150104171D01*
X246423530Y-150298496D01*
X246403498Y-150331508D01*
X246398001Y-150340567D01*
X246345561Y-150388427D01*
X246275571Y-150400339D01*
X246210251Y-150372521D01*
X246170341Y-150313804D01*
X246164628Y-150284539D01*
X246161883Y-150247597D01*
X246161882Y-150247593D01*
X246161537Y-150242945D01*
X246105756Y-149996428D01*
X246087544Y-149949596D01*
X246015843Y-149765216D01*
X246015842Y-149765214D01*
X246014150Y-149760863D01*
X245888731Y-149541426D01*
X245769944Y-149390746D01*
X245735147Y-149346606D01*
X245735144Y-149346603D01*
X245732255Y-149342938D01*
X245548160Y-149169758D01*
X245340489Y-149025691D01*
X245309626Y-149010471D01*
X245117993Y-148915968D01*
X245117990Y-148915967D01*
X245113805Y-148913903D01*
X245069379Y-148899682D01*
X245017403Y-148883045D01*
X244873087Y-148836849D01*
X244868480Y-148836099D01*
X244868477Y-148836098D01*
X244628235Y-148796972D01*
X244628236Y-148796972D01*
X244623624Y-148796221D01*
X244501026Y-148794616D01*
X244375573Y-148792974D01*
X244375570Y-148792974D01*
X244370896Y-148792913D01*
X244120455Y-148826996D01*
X244115965Y-148828305D01*
X244115959Y-148828306D01*
X244012851Y-148858360D01*
X243877803Y-148897723D01*
X243873556Y-148899681D01*
X243873553Y-148899682D01*
X243838226Y-148915968D01*
X243648270Y-149003539D01*
X243637697Y-149010471D01*
X243440812Y-149139554D01*
X243440807Y-149139558D01*
X243436899Y-149142120D01*
X243367165Y-149204360D01*
X243254778Y-149304669D01*
X243248333Y-149310421D01*
X243086715Y-149504746D01*
X242955595Y-149720825D01*
X242953786Y-149725139D01*
X242953785Y-149725141D01*
X242870632Y-149923440D01*
X242857854Y-149953911D01*
X242856703Y-149958443D01*
X242856702Y-149958446D01*
X242835319Y-150042641D01*
X242795639Y-150198883D01*
X242770316Y-150450361D01*
X242770540Y-150455027D01*
X242770540Y-150455033D01*
X242777816Y-150606497D01*
X242761105Y-150675499D01*
X242709742Y-150724512D01*
X242640034Y-150737976D01*
X242574112Y-150711616D01*
X242556150Y-150694372D01*
X242473902Y-150598072D01*
X242473897Y-150598067D01*
X242470689Y-150594311D01*
X242273140Y-150425588D01*
X242051628Y-150289846D01*
X242047058Y-150287953D01*
X242047054Y-150287951D01*
X241816183Y-150192321D01*
X241816181Y-150192320D01*
X241811610Y-150190427D01*
X241773231Y-150181213D01*
X241711661Y-150145861D01*
X241678978Y-150082835D01*
X241677032Y-150068580D01*
X241669015Y-149966714D01*
X241665221Y-149918506D01*
X241664067Y-149913699D01*
X241664066Y-149913693D01*
X241610715Y-149691473D01*
X241604573Y-149665890D01*
X241590545Y-149632024D01*
X241507049Y-149430446D01*
X241507047Y-149430442D01*
X241505154Y-149425872D01*
X241369412Y-149204360D01*
X241200689Y-149006811D01*
X241003140Y-148838088D01*
X240781628Y-148702346D01*
X240777058Y-148700453D01*
X240777054Y-148700451D01*
X240546183Y-148604821D01*
X240546181Y-148604820D01*
X240541610Y-148602927D01*
X240412199Y-148571858D01*
X240293807Y-148543434D01*
X240293801Y-148543433D01*
X240288994Y-148542279D01*
X240030000Y-148521896D01*
X239785520Y-148541137D01*
X239716041Y-148526541D01*
X239665481Y-148476698D01*
X239650164Y-148427063D01*
X239648329Y-148407108D01*
X239647800Y-148395570D01*
X239647800Y-148184060D01*
X239649105Y-148165974D01*
X239650770Y-148154495D01*
X239650770Y-148154492D01*
X239651302Y-148150826D01*
X239652016Y-148123602D01*
X239652867Y-148091188D01*
X239652867Y-148091181D01*
X239652964Y-148087475D01*
X239648328Y-148036990D01*
X239647800Y-148025469D01*
X239647800Y-147290344D01*
X239649104Y-147272263D01*
X239650772Y-147260763D01*
X239650773Y-147260755D01*
X239651304Y-147257091D01*
X239652964Y-147193740D01*
X239648328Y-147143275D01*
X239647800Y-147131748D01*
X239647800Y-145973555D01*
X239648673Y-145958746D01*
X239651870Y-145931733D01*
X239652549Y-145925997D01*
X239649419Y-145878244D01*
X239649301Y-145863829D01*
X239650916Y-145830968D01*
X239661996Y-145605406D01*
X239663207Y-145593106D01*
X239696105Y-145371323D01*
X245684851Y-145371323D01*
X245685541Y-145377888D01*
X245695341Y-145471127D01*
X245704637Y-145559579D01*
X245763132Y-145739607D01*
X245766435Y-145745328D01*
X245766436Y-145745330D01*
X245834852Y-145863829D01*
X245857779Y-145903539D01*
X245861531Y-145907932D01*
X245907380Y-145961615D01*
X245907387Y-145961622D01*
X245908999Y-145963510D01*
X247129495Y-147184005D01*
X247189466Y-147235226D01*
X247353398Y-147329873D01*
X247533426Y-147388368D01*
X247539987Y-147389058D01*
X247539989Y-147389058D01*
X247715117Y-147407464D01*
X247721682Y-147408154D01*
X247728247Y-147407464D01*
X247903375Y-147389058D01*
X247903377Y-147389058D01*
X247909938Y-147388368D01*
X248052425Y-147342071D01*
X248123392Y-147340043D01*
X248184190Y-147376706D01*
X248213068Y-147429293D01*
X248254213Y-147582851D01*
X248257959Y-147593143D01*
X248350035Y-147790601D01*
X248355518Y-147800097D01*
X248480477Y-147978557D01*
X248487533Y-147986965D01*
X248641574Y-148141006D01*
X248649982Y-148148062D01*
X248828442Y-148273021D01*
X248837938Y-148278504D01*
X249035396Y-148370580D01*
X249045688Y-148374326D01*
X249217952Y-148420484D01*
X249232048Y-148420148D01*
X249235449Y-148412206D01*
X249235449Y-148407057D01*
X249743449Y-148407057D01*
X249747422Y-148420588D01*
X249755971Y-148421817D01*
X249933210Y-148374326D01*
X249943502Y-148370580D01*
X250140960Y-148278504D01*
X250150456Y-148273021D01*
X250328916Y-148148062D01*
X250337324Y-148141006D01*
X250491365Y-147986965D01*
X250498421Y-147978557D01*
X250623380Y-147800097D01*
X250628863Y-147790601D01*
X250720939Y-147593143D01*
X250724685Y-147582851D01*
X250770843Y-147410587D01*
X250770507Y-147396491D01*
X250762565Y-147393090D01*
X249761564Y-147393090D01*
X249746325Y-147397565D01*
X249745120Y-147398955D01*
X249743449Y-147406638D01*
X249743449Y-148407057D01*
X249235449Y-148407057D01*
X249235449Y-147024111D01*
X252457131Y-147024111D01*
X252457355Y-147028777D01*
X252457355Y-147028783D01*
X252462261Y-147130916D01*
X252469258Y-147276570D01*
X252479861Y-147329873D01*
X252511359Y-147488224D01*
X252518567Y-147524463D01*
X252520146Y-147528861D01*
X252520148Y-147528868D01*
X252570312Y-147668585D01*
X252603975Y-147762345D01*
X252723607Y-147984990D01*
X252726402Y-147988734D01*
X252726404Y-147988736D01*
X252872041Y-148183768D01*
X252872046Y-148183774D01*
X252874833Y-148187506D01*
X252878142Y-148190786D01*
X252878147Y-148190792D01*
X253051015Y-148362158D01*
X253054332Y-148365446D01*
X253058094Y-148368204D01*
X253058097Y-148368207D01*
X253224938Y-148490539D01*
X253268046Y-148546950D01*
X253273813Y-148617712D01*
X253239528Y-148681246D01*
X253159899Y-148760875D01*
X253152843Y-148769283D01*
X253027884Y-148947743D01*
X253022401Y-148957239D01*
X252930325Y-149154697D01*
X252926579Y-149164989D01*
X252880421Y-149337253D01*
X252880757Y-149351349D01*
X252888699Y-149354750D01*
X255429782Y-149354750D01*
X255443313Y-149350777D01*
X255444542Y-149342228D01*
X255397051Y-149164989D01*
X255393305Y-149154697D01*
X255301229Y-148957239D01*
X255295746Y-148947743D01*
X255170787Y-148769283D01*
X255163731Y-148760875D01*
X255083338Y-148680482D01*
X255049312Y-148618170D01*
X255054377Y-148547355D01*
X255096924Y-148490519D01*
X255106131Y-148484242D01*
X255160169Y-148450803D01*
X255160178Y-148450797D01*
X255164146Y-148448341D01*
X255167710Y-148445324D01*
X255167714Y-148445321D01*
X255353487Y-148288052D01*
X255353488Y-148288051D01*
X255357053Y-148285033D01*
X255439701Y-148190792D01*
X255520621Y-148098521D01*
X255520625Y-148098516D01*
X255523703Y-148095006D01*
X255528547Y-148087475D01*
X255657909Y-147886360D01*
X255657911Y-147886357D01*
X255660434Y-147882434D01*
X255764243Y-147651986D01*
X255832849Y-147408726D01*
X255849078Y-147281159D01*
X255864348Y-147161128D01*
X255864348Y-147161122D01*
X255864746Y-147157997D01*
X255865434Y-147131748D01*
X255867000Y-147071910D01*
X255867083Y-147068750D01*
X255857736Y-146942969D01*
X255848698Y-146821347D01*
X255848697Y-146821343D01*
X255848352Y-146816695D01*
X255792571Y-146570178D01*
X255785853Y-146552902D01*
X255702658Y-146338966D01*
X255702657Y-146338964D01*
X255700965Y-146334613D01*
X255575546Y-146115176D01*
X255445739Y-145950517D01*
X255421962Y-145920356D01*
X255421959Y-145920353D01*
X255419070Y-145916688D01*
X255234975Y-145743508D01*
X255087247Y-145641025D01*
X255031146Y-145602106D01*
X255031143Y-145602104D01*
X255027304Y-145599441D01*
X255014458Y-145593106D01*
X254804808Y-145489718D01*
X254804805Y-145489717D01*
X254800620Y-145487653D01*
X254756194Y-145473432D01*
X254704218Y-145456795D01*
X254559902Y-145410599D01*
X254555295Y-145409849D01*
X254555292Y-145409848D01*
X254357259Y-145377596D01*
X254310439Y-145369971D01*
X254187841Y-145368366D01*
X254062388Y-145366724D01*
X254062385Y-145366724D01*
X254057711Y-145366663D01*
X253807270Y-145400746D01*
X253802780Y-145402055D01*
X253802774Y-145402056D01*
X253699666Y-145432110D01*
X253564618Y-145471473D01*
X253560371Y-145473431D01*
X253560368Y-145473432D01*
X253525041Y-145489718D01*
X253335085Y-145577289D01*
X253331176Y-145579852D01*
X253127627Y-145713304D01*
X253127622Y-145713308D01*
X253123714Y-145715870D01*
X253092748Y-145743508D01*
X252941779Y-145878253D01*
X252935148Y-145884171D01*
X252773530Y-146078496D01*
X252642410Y-146294575D01*
X252640601Y-146298889D01*
X252640600Y-146298891D01*
X252561477Y-146487579D01*
X252544669Y-146527661D01*
X252543518Y-146532193D01*
X252543517Y-146532196D01*
X252537701Y-146555096D01*
X252482454Y-146772633D01*
X252457131Y-147024111D01*
X249235449Y-147024111D01*
X249235449Y-147011090D01*
X249255451Y-146942969D01*
X249309107Y-146896476D01*
X249361449Y-146885090D01*
X250757416Y-146885090D01*
X250770947Y-146881117D01*
X250772176Y-146872568D01*
X250724685Y-146695329D01*
X250720939Y-146685037D01*
X250628863Y-146487579D01*
X250623380Y-146478083D01*
X250498421Y-146299623D01*
X250491365Y-146291215D01*
X250337324Y-146137174D01*
X250328916Y-146130118D01*
X250150456Y-146005159D01*
X250140960Y-145999676D01*
X249943502Y-145907600D01*
X249933210Y-145903854D01*
X249779652Y-145862709D01*
X249719029Y-145825758D01*
X249688008Y-145761897D01*
X249692430Y-145702066D01*
X249732973Y-145577289D01*
X249738727Y-145559579D01*
X249748024Y-145471127D01*
X249757823Y-145377888D01*
X249758513Y-145371323D01*
X249751121Y-145300987D01*
X249739417Y-145189630D01*
X249739417Y-145189628D01*
X249738727Y-145183067D01*
X249680232Y-145003039D01*
X249585585Y-144839107D01*
X249536557Y-144781702D01*
X249535984Y-144781031D01*
X249535973Y-144781019D01*
X249534365Y-144779136D01*
X248313869Y-143558641D01*
X248253898Y-143507420D01*
X248089966Y-143412773D01*
X247909938Y-143354278D01*
X247903377Y-143353588D01*
X247903375Y-143353588D01*
X247728247Y-143335182D01*
X247721682Y-143334492D01*
X247715117Y-143335182D01*
X247539989Y-143353588D01*
X247539987Y-143353588D01*
X247533426Y-143354278D01*
X247353398Y-143412773D01*
X247189466Y-143507420D01*
X247185074Y-143511171D01*
X247185073Y-143511172D01*
X247131390Y-143557021D01*
X247131383Y-143557028D01*
X247129495Y-143558640D01*
X245909000Y-144779136D01*
X245904662Y-144784215D01*
X245863694Y-144832182D01*
X245857779Y-144839107D01*
X245763132Y-145003039D01*
X245704637Y-145183067D01*
X245703947Y-145189628D01*
X245703947Y-145189630D01*
X245692243Y-145300987D01*
X245684851Y-145371323D01*
X239696105Y-145371323D01*
X239704740Y-145313114D01*
X239707152Y-145300987D01*
X239775928Y-145026413D01*
X239779518Y-145014580D01*
X239874879Y-144748065D01*
X239879610Y-144736641D01*
X240000633Y-144480758D01*
X240006462Y-144469853D01*
X240039957Y-144413971D01*
X240151984Y-144227064D01*
X240158854Y-144216783D01*
X240327469Y-143989433D01*
X240335313Y-143979875D01*
X240444501Y-143859404D01*
X240488364Y-143811008D01*
X240503722Y-143796672D01*
X240505974Y-143794897D01*
X240510513Y-143791319D01*
X240542859Y-143754436D01*
X240555686Y-143739809D01*
X240561323Y-143733792D01*
X242873990Y-141421125D01*
X245136198Y-139158918D01*
X245198508Y-139124893D01*
X245269323Y-139129958D01*
X245326159Y-139172505D01*
X245336281Y-139188372D01*
X245421107Y-139346240D01*
X245423902Y-139349984D01*
X245423904Y-139349986D01*
X245569541Y-139545018D01*
X245569546Y-139545024D01*
X245572333Y-139548756D01*
X245575642Y-139552036D01*
X245575647Y-139552042D01*
X245631841Y-139607747D01*
X245666137Y-139669910D01*
X245661382Y-139740747D01*
X245634253Y-139783988D01*
X245632648Y-139785421D01*
X245471030Y-139979746D01*
X245339910Y-140195825D01*
X245338101Y-140200139D01*
X245338100Y-140200141D01*
X245255638Y-140396792D01*
X245242169Y-140428911D01*
X245241018Y-140433443D01*
X245241017Y-140433446D01*
X245232477Y-140467074D01*
X245179954Y-140673883D01*
X245154631Y-140925361D01*
X245154855Y-140930027D01*
X245154855Y-140930033D01*
X245157262Y-140980143D01*
X245166758Y-141177820D01*
X245180350Y-141246151D01*
X245206875Y-141379500D01*
X245216067Y-141425713D01*
X245217646Y-141430111D01*
X245217648Y-141430118D01*
X245278799Y-141600438D01*
X245301475Y-141663595D01*
X245421107Y-141886240D01*
X245423902Y-141889984D01*
X245423904Y-141889986D01*
X245569541Y-142085018D01*
X245569546Y-142085024D01*
X245572333Y-142088756D01*
X245575642Y-142092036D01*
X245575647Y-142092042D01*
X245684585Y-142200033D01*
X245751832Y-142266696D01*
X245755594Y-142269454D01*
X245755597Y-142269457D01*
X245893896Y-142370861D01*
X245955661Y-142416149D01*
X245959796Y-142418325D01*
X245959800Y-142418327D01*
X246053694Y-142467727D01*
X246179341Y-142533833D01*
X246281728Y-142569588D01*
X246406041Y-142613000D01*
X246417959Y-142617162D01*
X246422552Y-142618034D01*
X246661684Y-142663435D01*
X246661687Y-142663435D01*
X246666273Y-142664306D01*
X246786396Y-142669026D01*
X246914160Y-142674046D01*
X246914165Y-142674046D01*
X246918828Y-142674229D01*
X246996972Y-142665671D01*
X247165422Y-142647223D01*
X247165427Y-142647222D01*
X247170075Y-142646713D01*
X247174599Y-142645522D01*
X247409973Y-142583554D01*
X247409976Y-142583553D01*
X247414496Y-142582363D01*
X247646720Y-142482591D01*
X247758486Y-142413428D01*
X247857673Y-142352050D01*
X247857677Y-142352047D01*
X247861646Y-142349591D01*
X247956304Y-142269457D01*
X248050987Y-142189302D01*
X248050988Y-142189301D01*
X248054553Y-142186283D01*
X248080204Y-142157034D01*
X248218121Y-141999771D01*
X248218125Y-141999766D01*
X248221203Y-141996256D01*
X248226549Y-141987945D01*
X248355409Y-141787610D01*
X248355411Y-141787607D01*
X248357934Y-141783684D01*
X248461743Y-141553236D01*
X248530349Y-141309976D01*
X248546578Y-141182409D01*
X248561848Y-141062378D01*
X248561848Y-141062372D01*
X248562246Y-141059247D01*
X248562347Y-141055421D01*
X248564317Y-140980143D01*
X248564583Y-140970000D01*
X248560920Y-140920707D01*
X248546198Y-140722597D01*
X248546197Y-140722593D01*
X248545852Y-140717945D01*
X248490071Y-140471428D01*
X248477862Y-140440033D01*
X248400158Y-140240216D01*
X248400157Y-140240214D01*
X248398465Y-140235863D01*
X248361376Y-140170970D01*
X248342910Y-140138663D01*
X248273046Y-140016426D01*
X248191461Y-139912936D01*
X248119462Y-139821606D01*
X248119459Y-139821603D01*
X248116570Y-139817938D01*
X248088727Y-139791746D01*
X248052815Y-139730502D01*
X248055715Y-139659564D01*
X248080328Y-139616893D01*
X248218121Y-139459771D01*
X248218125Y-139459766D01*
X248221203Y-139456256D01*
X248237645Y-139430694D01*
X248355409Y-139247610D01*
X248355411Y-139247607D01*
X248357934Y-139243684D01*
X248461743Y-139013236D01*
X248530349Y-138769976D01*
X248562246Y-138519247D01*
X248564583Y-138430000D01*
X248554020Y-138287859D01*
X248546198Y-138182597D01*
X248546197Y-138182593D01*
X248545852Y-138177945D01*
X248490071Y-137931428D01*
X248488378Y-137927074D01*
X248460557Y-137855532D01*
X248454510Y-137784793D01*
X248487667Y-137722015D01*
X248498687Y-137711952D01*
X248599572Y-137630257D01*
X248651931Y-137565599D01*
X248714542Y-137488282D01*
X248714545Y-137488278D01*
X248718698Y-137483149D01*
X248804635Y-137314488D01*
X248809787Y-137295261D01*
X248852133Y-137137223D01*
X248852134Y-137137217D01*
X248853627Y-137131645D01*
X248854406Y-137121747D01*
X248859622Y-137055477D01*
X248859622Y-137055470D01*
X248859815Y-137053021D01*
X248859815Y-136649225D01*
X249198048Y-136649225D01*
X249217037Y-136866269D01*
X249218940Y-136877062D01*
X249275329Y-137087511D01*
X249279075Y-137097803D01*
X249371151Y-137295261D01*
X249376634Y-137304756D01*
X249413074Y-137356798D01*
X249423553Y-137365174D01*
X249436999Y-137358106D01*
X250138543Y-136656562D01*
X250146157Y-136642618D01*
X250146026Y-136640785D01*
X250141775Y-136634170D01*
X249436278Y-135928673D01*
X249424503Y-135922243D01*
X249412488Y-135931539D01*
X249376634Y-135982744D01*
X249371151Y-135992239D01*
X249279075Y-136189697D01*
X249275329Y-136199989D01*
X249218940Y-136410438D01*
X249217037Y-136421231D01*
X249198048Y-136638275D01*
X249198048Y-136649225D01*
X248859815Y-136649225D01*
X248859814Y-135556738D01*
X249789141Y-135556738D01*
X249796209Y-135570184D01*
X250497753Y-136271728D01*
X250511697Y-136279342D01*
X250513530Y-136279211D01*
X250520145Y-136274960D01*
X251225642Y-135569463D01*
X251232072Y-135557688D01*
X251222776Y-135545673D01*
X251171571Y-135509819D01*
X251162076Y-135504336D01*
X250964618Y-135412260D01*
X250954326Y-135408514D01*
X250743877Y-135352125D01*
X250733084Y-135350222D01*
X250516040Y-135331233D01*
X250505090Y-135331233D01*
X250288046Y-135350222D01*
X250277253Y-135352125D01*
X250066804Y-135408514D01*
X250056512Y-135412260D01*
X249859054Y-135504336D01*
X249849559Y-135509819D01*
X249797517Y-135546259D01*
X249789141Y-135556738D01*
X248859814Y-135556738D01*
X248859814Y-134726980D01*
X248853627Y-134648355D01*
X248804635Y-134465512D01*
X248718698Y-134296851D01*
X248708547Y-134284316D01*
X248681222Y-134218791D01*
X248691227Y-134154075D01*
X248744551Y-134033459D01*
X248744556Y-134033446D01*
X248746355Y-134029376D01*
X248823254Y-133756712D01*
X248824160Y-133749966D01*
X248860540Y-133479115D01*
X248860541Y-133479107D01*
X248860967Y-133475933D01*
X248861068Y-133472722D01*
X248864824Y-133353222D01*
X248864824Y-133353217D01*
X248864925Y-133350000D01*
X248844916Y-133067407D01*
X248840028Y-133044700D01*
X248786226Y-132794800D01*
X248786226Y-132794798D01*
X248785290Y-132790453D01*
X248687235Y-132524663D01*
X248566870Y-132301587D01*
X248554821Y-132279256D01*
X248552708Y-132275340D01*
X248384393Y-132047460D01*
X248337869Y-132000199D01*
X248211076Y-131871400D01*
X248185649Y-131845570D01*
X248182109Y-131842869D01*
X248182103Y-131842863D01*
X247963982Y-131676398D01*
X247963978Y-131676395D01*
X247960441Y-131673696D01*
X247753634Y-131557879D01*
X247717152Y-131537448D01*
X247717147Y-131537445D01*
X247713262Y-131535270D01*
X247709104Y-131533662D01*
X247709099Y-131533659D01*
X247453200Y-131434659D01*
X247453194Y-131434657D01*
X247449045Y-131433052D01*
X247444713Y-131432048D01*
X247444710Y-131432047D01*
X247369456Y-131414604D01*
X247173062Y-131369082D01*
X246890818Y-131344637D01*
X246886383Y-131344881D01*
X246886379Y-131344881D01*
X246612388Y-131359960D01*
X246612381Y-131359961D01*
X246607945Y-131360205D01*
X246470058Y-131387632D01*
X246334461Y-131414604D01*
X246334456Y-131414605D01*
X246330089Y-131415474D01*
X246325886Y-131416950D01*
X246066999Y-131507864D01*
X246066996Y-131507865D01*
X246062791Y-131509342D01*
X246058838Y-131511395D01*
X246058832Y-131511398D01*
X245985435Y-131549525D01*
X245811387Y-131639936D01*
X245807772Y-131642519D01*
X245807766Y-131642523D01*
X245696352Y-131722142D01*
X245580891Y-131804651D01*
X245577664Y-131807729D01*
X245577662Y-131807731D01*
X245398026Y-131979095D01*
X245375903Y-132000199D01*
X245200514Y-132222680D01*
X245167652Y-132279256D01*
X245060456Y-132463807D01*
X245060453Y-132463813D01*
X245058222Y-132467654D01*
X245056552Y-132471777D01*
X244971998Y-132680532D01*
X244951867Y-132730232D01*
X244950796Y-132734545D01*
X244950794Y-132734550D01*
X244900466Y-132937158D01*
X244883570Y-133005177D01*
X244883116Y-133009605D01*
X244883116Y-133009607D01*
X244870973Y-133128128D01*
X244854695Y-133287002D01*
X244865817Y-133570084D01*
X244916715Y-133848775D01*
X244918124Y-133852998D01*
X244974920Y-134023236D01*
X245006373Y-134117514D01*
X245023070Y-134150931D01*
X245035627Y-134220807D01*
X245008277Y-134286546D01*
X244999932Y-134296851D01*
X244913995Y-134465512D01*
X244912287Y-134471885D01*
X244912287Y-134471886D01*
X244866497Y-134642777D01*
X244866496Y-134642783D01*
X244865003Y-134648355D01*
X244864550Y-134654109D01*
X244864550Y-134654111D01*
X244859009Y-134724520D01*
X244858815Y-134726979D01*
X244858815Y-135481330D01*
X244851592Y-135523378D01*
X244850574Y-135526253D01*
X244844117Y-135545150D01*
X244843948Y-135545663D01*
X244837361Y-135566500D01*
X244785084Y-135739096D01*
X244780744Y-135753876D01*
X244780699Y-135754034D01*
X244780684Y-135754086D01*
X244738139Y-135903679D01*
X244737354Y-135906330D01*
X244710869Y-135992239D01*
X244702905Y-136018071D01*
X244700347Y-136025530D01*
X244671606Y-136101509D01*
X244666937Y-136112300D01*
X244636765Y-136173968D01*
X244630266Y-136185638D01*
X244585313Y-136257144D01*
X244577974Y-136267601D01*
X244500800Y-136366495D01*
X244493737Y-136374780D01*
X244351789Y-136527417D01*
X244350179Y-136529464D01*
X244350177Y-136529466D01*
X244331319Y-136553438D01*
X244321384Y-136564629D01*
X238893330Y-141992683D01*
X238879625Y-142004545D01*
X238870311Y-142011500D01*
X238870306Y-142011504D01*
X238867328Y-142013728D01*
X238821359Y-142057351D01*
X238818992Y-142060197D01*
X238811493Y-142069213D01*
X238807145Y-142074171D01*
X238550276Y-142352050D01*
X238532887Y-142370861D01*
X238531355Y-142372804D01*
X238531351Y-142372809D01*
X238488578Y-142427067D01*
X238269157Y-142705401D01*
X238267780Y-142707462D01*
X238267777Y-142707466D01*
X238113926Y-142937721D01*
X238032488Y-143059601D01*
X237937161Y-143229821D01*
X237832853Y-143416077D01*
X237824339Y-143431279D01*
X237789238Y-143507420D01*
X237652590Y-143803833D01*
X237645993Y-143818142D01*
X237498550Y-144217806D01*
X237443226Y-144413971D01*
X237401328Y-144562533D01*
X237382919Y-144627805D01*
X237351808Y-144784215D01*
X237303339Y-145027889D01*
X237299813Y-145045614D01*
X237299525Y-145048051D01*
X237299523Y-145048061D01*
X237284288Y-145176789D01*
X237249744Y-145468654D01*
X237248564Y-145498686D01*
X237236443Y-145807200D01*
X237235237Y-145820326D01*
X237234226Y-145827300D01*
X237234225Y-145827312D01*
X237233695Y-145830968D01*
X237233598Y-145834663D01*
X237233598Y-145834666D01*
X237232188Y-145888500D01*
X237232036Y-145894319D01*
X237232375Y-145898006D01*
X237232375Y-145898012D01*
X237236671Y-145944759D01*
X237237200Y-145956289D01*
X237237200Y-146941200D01*
X237217198Y-147009321D01*
X237163542Y-147055814D01*
X237111200Y-147067200D01*
X233991287Y-147067200D01*
X233973208Y-147065896D01*
X233961703Y-147064228D01*
X233961704Y-147064228D01*
X233958027Y-147063695D01*
X233894676Y-147062036D01*
X233881038Y-147063289D01*
X233874489Y-147063718D01*
X233719235Y-147069819D01*
X233459571Y-147080022D01*
X233457127Y-147080311D01*
X233457118Y-147080312D01*
X233166068Y-147114762D01*
X233027149Y-147131205D01*
X232600076Y-147216158D01*
X232597715Y-147216824D01*
X232597702Y-147216827D01*
X232401148Y-147272263D01*
X232180985Y-147334357D01*
X232034586Y-147388368D01*
X231774763Y-147484224D01*
X231774755Y-147484227D01*
X231772460Y-147485074D01*
X231770231Y-147486101D01*
X231770230Y-147486102D01*
X231379257Y-147666346D01*
X231379252Y-147666349D01*
X231377019Y-147667378D01*
X230997101Y-147880147D01*
X230995057Y-147881513D01*
X230995055Y-147881514D01*
X230637102Y-148120695D01*
X230637093Y-148120702D01*
X230635048Y-148122068D01*
X230293092Y-148391650D01*
X230291274Y-148393331D01*
X230291270Y-148393334D01*
X230036891Y-148628485D01*
X230026753Y-148636916D01*
X230018661Y-148642959D01*
X229972693Y-148686582D01*
X229970322Y-148689433D01*
X229970321Y-148689434D01*
X229940301Y-148725530D01*
X229932521Y-148734057D01*
X229873016Y-148793562D01*
X229860380Y-148804617D01*
X229837442Y-148822129D01*
X229835044Y-148824393D01*
X229835041Y-148824396D01*
X229795703Y-148861544D01*
X229741764Y-148912480D01*
X229740605Y-148913574D01*
X229734036Y-148919358D01*
X229677459Y-148965773D01*
X229668853Y-148972237D01*
X229636778Y-148994250D01*
X229626504Y-149000598D01*
X229608663Y-149010471D01*
X229598010Y-149015725D01*
X229577230Y-149024783D01*
X229568191Y-149028314D01*
X229525576Y-149043100D01*
X229519828Y-149044942D01*
X229442331Y-149067736D01*
X229440481Y-149068265D01*
X229330567Y-149098757D01*
X229319795Y-149101817D01*
X229189666Y-149139656D01*
X229173292Y-149144585D01*
X229172958Y-149144689D01*
X229161824Y-149148235D01*
X229141977Y-149154697D01*
X229027043Y-149192118D01*
X229027035Y-149192121D01*
X229023663Y-149193219D01*
X229020440Y-149194687D01*
X229020431Y-149194691D01*
X229008381Y-149200182D01*
X228991401Y-149206488D01*
X228961433Y-149215223D01*
X228957186Y-149217181D01*
X228957183Y-149217182D01*
X228881657Y-149252000D01*
X228731900Y-149321039D01*
X228692904Y-149346606D01*
X228524442Y-149457054D01*
X228524437Y-149457058D01*
X228520529Y-149459620D01*
X228465491Y-149508743D01*
X228344997Y-149616288D01*
X228331963Y-149627921D01*
X228170345Y-149822246D01*
X228039225Y-150038325D01*
X228037416Y-150042639D01*
X228037415Y-150042641D01*
X227946160Y-150260261D01*
X227941484Y-150271411D01*
X227940333Y-150275943D01*
X227940332Y-150275946D01*
X227923275Y-150343109D01*
X227879269Y-150516383D01*
X227853946Y-150767861D01*
X227854170Y-150772527D01*
X227854170Y-150772533D01*
X227857955Y-150851313D01*
X227866073Y-151020320D01*
X227866986Y-151024909D01*
X227912434Y-151253390D01*
X227915382Y-151268213D01*
X227916961Y-151272611D01*
X227916963Y-151272618D01*
X227944920Y-151350484D01*
X227999018Y-151501158D01*
X227999454Y-151502373D01*
X228003648Y-151573245D01*
X227968859Y-151635134D01*
X227906133Y-151668391D01*
X227880866Y-151670950D01*
X227238900Y-151670950D01*
X227170779Y-151650948D01*
X227124286Y-151597292D01*
X227112900Y-151544950D01*
X227112900Y-151358709D01*
X227113008Y-151353501D01*
X227120772Y-151165839D01*
X227121785Y-151154280D01*
X227122952Y-151145590D01*
X227122954Y-151145570D01*
X227123381Y-151142388D01*
X227126765Y-151034750D01*
X227126947Y-151028962D01*
X227126947Y-151028956D01*
X227127048Y-151025740D01*
X227126404Y-151016635D01*
X227122630Y-150963334D01*
X227122315Y-150954436D01*
X227122315Y-146708818D01*
X227122744Y-146698431D01*
X227122952Y-146695912D01*
X227123381Y-146692721D01*
X227127048Y-146576073D01*
X227126821Y-146572872D01*
X227126821Y-146572850D01*
X227125564Y-146555096D01*
X227125329Y-146550695D01*
X227110542Y-146136524D01*
X227110541Y-146136511D01*
X227110461Y-146134268D01*
X227063209Y-145694715D01*
X227021982Y-145466198D01*
X226985118Y-145261862D01*
X226985115Y-145261849D01*
X226984719Y-145259653D01*
X226917764Y-144997316D01*
X226875949Y-144833479D01*
X226875946Y-144833470D01*
X226875392Y-144831298D01*
X226863903Y-144796776D01*
X226736496Y-144413971D01*
X226736495Y-144413969D01*
X226735785Y-144411835D01*
X226734929Y-144409768D01*
X226734924Y-144409755D01*
X226567472Y-144005482D01*
X226567470Y-144005477D01*
X226566609Y-144003399D01*
X226559618Y-143989433D01*
X226369727Y-143610073D01*
X226369722Y-143610065D01*
X226368726Y-143608074D01*
X226168004Y-143269771D01*
X226144301Y-143229821D01*
X226144298Y-143229817D01*
X226143145Y-143227873D01*
X226036226Y-143073878D01*
X225892303Y-142866588D01*
X225892302Y-142866587D01*
X225891015Y-142864733D01*
X225861015Y-142827504D01*
X225766267Y-142709928D01*
X228385158Y-142709928D01*
X228402037Y-143002659D01*
X228402862Y-143006864D01*
X228402863Y-143006872D01*
X228432903Y-143159986D01*
X228458488Y-143290391D01*
X228459875Y-143294442D01*
X228550934Y-143560404D01*
X228553466Y-143567800D01*
X228555392Y-143571629D01*
X228679105Y-143817604D01*
X228685214Y-143829751D01*
X228851294Y-144071400D01*
X229048633Y-144288272D01*
X229051922Y-144291022D01*
X229270287Y-144473604D01*
X229270292Y-144473608D01*
X229273579Y-144476356D01*
X229331441Y-144512653D01*
X229518330Y-144629889D01*
X229518334Y-144629891D01*
X229521970Y-144632172D01*
X229525880Y-144633937D01*
X229525881Y-144633938D01*
X229785297Y-144751069D01*
X229785301Y-144751071D01*
X229789209Y-144752835D01*
X229793329Y-144754055D01*
X229793328Y-144754055D01*
X230066239Y-144834895D01*
X230066243Y-144834896D01*
X230070352Y-144836113D01*
X230074586Y-144836761D01*
X230074591Y-144836762D01*
X230355953Y-144879816D01*
X230355955Y-144879816D01*
X230360195Y-144880465D01*
X230509439Y-144882810D01*
X230649085Y-144885004D01*
X230649091Y-144885004D01*
X230653376Y-144885071D01*
X230944470Y-144849845D01*
X231228090Y-144775439D01*
X231498987Y-144663229D01*
X231507854Y-144658048D01*
X231748452Y-144517454D01*
X231748453Y-144517453D01*
X231752150Y-144515293D01*
X231798897Y-144478639D01*
X231979521Y-144337011D01*
X231982893Y-144334367D01*
X232186946Y-144123800D01*
X232360535Y-143887488D01*
X232374076Y-143862549D01*
X232498396Y-143633580D01*
X232498397Y-143633578D01*
X232500446Y-143629804D01*
X232604091Y-143355515D01*
X232669552Y-143069698D01*
X232695617Y-142777642D01*
X232696090Y-142732500D01*
X232694110Y-142703453D01*
X232676439Y-142444239D01*
X232676438Y-142444233D01*
X232676147Y-142439962D01*
X232616686Y-142152837D01*
X232518808Y-141876438D01*
X232384324Y-141615880D01*
X232215723Y-141375984D01*
X232212798Y-141372836D01*
X232019044Y-141164333D01*
X232019041Y-141164331D01*
X232016123Y-141161190D01*
X231789220Y-140975472D01*
X231539211Y-140822266D01*
X231343469Y-140736341D01*
X231274655Y-140706134D01*
X231270723Y-140704408D01*
X231244272Y-140696873D01*
X230992852Y-140625254D01*
X230992853Y-140625254D01*
X230988724Y-140624078D01*
X230771940Y-140593226D01*
X230702684Y-140583369D01*
X230702682Y-140583369D01*
X230698432Y-140582764D01*
X230694143Y-140582742D01*
X230694136Y-140582741D01*
X230409504Y-140581250D01*
X230409497Y-140581250D01*
X230405218Y-140581228D01*
X230400973Y-140581787D01*
X230400971Y-140581787D01*
X230335651Y-140590387D01*
X230114510Y-140619501D01*
X229905166Y-140676771D01*
X229854400Y-140690659D01*
X229831685Y-140696873D01*
X229561977Y-140811913D01*
X229558296Y-140814116D01*
X229314060Y-140960288D01*
X229314056Y-140960291D01*
X229310378Y-140962492D01*
X229081542Y-141145824D01*
X228879704Y-141358517D01*
X228708600Y-141596634D01*
X228571395Y-141855769D01*
X228561752Y-141882119D01*
X228497627Y-142057351D01*
X228470628Y-142131128D01*
X228408164Y-142417614D01*
X228385158Y-142709928D01*
X225766267Y-142709928D01*
X225690269Y-142615620D01*
X225653174Y-142569587D01*
X225626005Y-142503995D01*
X225638611Y-142434127D01*
X225687618Y-142381795D01*
X225838413Y-142293501D01*
X225838414Y-142293500D01*
X225842358Y-142291191D01*
X226020412Y-142148799D01*
X226048807Y-142126091D01*
X226048809Y-142126089D01*
X226052373Y-142123239D01*
X226055483Y-142119909D01*
X226055487Y-142119906D01*
X226232831Y-141930059D01*
X226232835Y-141930054D01*
X226235942Y-141926728D01*
X226339133Y-141777980D01*
X226386619Y-141709530D01*
X226386622Y-141709524D01*
X226389222Y-141705777D01*
X226394785Y-141694596D01*
X226449111Y-141585395D01*
X226509000Y-141465013D01*
X226592768Y-141209480D01*
X226638770Y-140944532D01*
X226643000Y-140859567D01*
X226643000Y-140596684D01*
X226641989Y-140582741D01*
X226631853Y-140443052D01*
X226628496Y-140396792D01*
X226627295Y-140391350D01*
X226571507Y-140138663D01*
X226571506Y-140138659D01*
X226570522Y-140134203D01*
X226475249Y-139882734D01*
X226344672Y-139647651D01*
X226290456Y-139576611D01*
X226184295Y-139437505D01*
X226184291Y-139437501D01*
X226181528Y-139433880D01*
X226141128Y-139394386D01*
X226057870Y-139312997D01*
X225989233Y-139245900D01*
X225771816Y-139087647D01*
X225533831Y-138962437D01*
X225529530Y-138960918D01*
X225529525Y-138960916D01*
X225397831Y-138914411D01*
X225280265Y-138872894D01*
X225183054Y-138853734D01*
X225020900Y-138821773D01*
X225020894Y-138821772D01*
X225016428Y-138820892D01*
X225011875Y-138820665D01*
X225011872Y-138820665D01*
X224752417Y-138807748D01*
X224752411Y-138807748D01*
X224747848Y-138807521D01*
X224480151Y-138833062D01*
X224475721Y-138834146D01*
X224475715Y-138834147D01*
X224328479Y-138870176D01*
X224218945Y-138896979D01*
X224214710Y-138898694D01*
X224214708Y-138898695D01*
X223973930Y-138996220D01*
X223969701Y-138997933D01*
X223737642Y-139133809D01*
X223601939Y-139242333D01*
X223536247Y-139269256D01*
X223466426Y-139256390D01*
X223449096Y-139245800D01*
X223235510Y-139090335D01*
X223235503Y-139090330D01*
X223231816Y-139087647D01*
X222993831Y-138962437D01*
X222989530Y-138960918D01*
X222989525Y-138960916D01*
X222857831Y-138914411D01*
X222740265Y-138872894D01*
X222643054Y-138853734D01*
X222480900Y-138821773D01*
X222480894Y-138821772D01*
X222476428Y-138820892D01*
X222471875Y-138820665D01*
X222471872Y-138820665D01*
X222212417Y-138807748D01*
X222212411Y-138807748D01*
X222207848Y-138807521D01*
X221940151Y-138833062D01*
X221935721Y-138834146D01*
X221935715Y-138834147D01*
X221788479Y-138870176D01*
X221678945Y-138896979D01*
X221674710Y-138898694D01*
X221674708Y-138898695D01*
X221433930Y-138996220D01*
X221429701Y-138997933D01*
X221387641Y-139022560D01*
X221377990Y-139028211D01*
X221309099Y-139045371D01*
X221241866Y-139022560D01*
X221235041Y-139017408D01*
X221155649Y-138953117D01*
X221149771Y-138950122D01*
X221149768Y-138950120D01*
X221072834Y-138910920D01*
X220986988Y-138867180D01*
X220980614Y-138865472D01*
X220809723Y-138819682D01*
X220809717Y-138819681D01*
X220804145Y-138818188D01*
X220794247Y-138817409D01*
X220727977Y-138812193D01*
X220727970Y-138812193D01*
X220725521Y-138812000D01*
X219710412Y-138812000D01*
X218694480Y-138812001D01*
X218645557Y-138815851D01*
X218621609Y-138817735D01*
X218621607Y-138817735D01*
X218615855Y-138818188D01*
X218433012Y-138867180D01*
X218347166Y-138910920D01*
X218270232Y-138950120D01*
X218270229Y-138950122D01*
X218264351Y-138953117D01*
X218259222Y-138957270D01*
X218259218Y-138957273D01*
X218171618Y-139028211D01*
X218117243Y-139072243D01*
X218113088Y-139077374D01*
X218002273Y-139214218D01*
X218002270Y-139214222D01*
X217998117Y-139219351D01*
X217995122Y-139225229D01*
X217995120Y-139225232D01*
X217972689Y-139269256D01*
X217912180Y-139388012D01*
X217910472Y-139394385D01*
X217910472Y-139394386D01*
X217864682Y-139565277D01*
X217864681Y-139565283D01*
X217863188Y-139570855D01*
X217862735Y-139576611D01*
X217857252Y-139646283D01*
X217857000Y-139649479D01*
X217857001Y-141775520D01*
X217859880Y-141812110D01*
X217862674Y-141847608D01*
X217863188Y-141854145D01*
X217877440Y-141907334D01*
X217906634Y-142016288D01*
X217912180Y-142036988D01*
X217954429Y-142119906D01*
X217990504Y-142190707D01*
X217998117Y-142205649D01*
X218002270Y-142210778D01*
X218002273Y-142210782D01*
X218069258Y-142293501D01*
X218117243Y-142352757D01*
X218122374Y-142356912D01*
X218259218Y-142467727D01*
X218259222Y-142467730D01*
X218264351Y-142471883D01*
X218270229Y-142474878D01*
X218270232Y-142474880D01*
X218327374Y-142503995D01*
X218433012Y-142557820D01*
X218439385Y-142559528D01*
X218439386Y-142559528D01*
X218610277Y-142605318D01*
X218610283Y-142605319D01*
X218615855Y-142606812D01*
X218621611Y-142607265D01*
X218692023Y-142612807D01*
X218692030Y-142612807D01*
X218694479Y-142613000D01*
X219709588Y-142613000D01*
X220725520Y-142612999D01*
X220727981Y-142612805D01*
X220727990Y-142612805D01*
X220740780Y-142611799D01*
X220810259Y-142626398D01*
X220862423Y-142679230D01*
X220959958Y-142866588D01*
X220980669Y-142906373D01*
X221186340Y-143229207D01*
X221188012Y-143231385D01*
X221188012Y-143231386D01*
X221397610Y-143504533D01*
X221419366Y-143532886D01*
X221421209Y-143534897D01*
X221421218Y-143534908D01*
X221580458Y-143708684D01*
X221587719Y-143717360D01*
X221597687Y-143730420D01*
X221599886Y-143732762D01*
X221599888Y-143732764D01*
X221620240Y-143754436D01*
X221677579Y-143815494D01*
X221680011Y-143817604D01*
X221724810Y-143856478D01*
X221731327Y-143862549D01*
X222298182Y-144429405D01*
X222332207Y-144491717D01*
X222327142Y-144562533D01*
X222284595Y-144619368D01*
X222218075Y-144644179D01*
X222209086Y-144644500D01*
X221252115Y-144644500D01*
X221236876Y-144648975D01*
X221235671Y-144650365D01*
X221234000Y-144658048D01*
X221234000Y-147622384D01*
X221238475Y-147637623D01*
X221239865Y-147638828D01*
X221247548Y-147640499D01*
X223004669Y-147640499D01*
X223011490Y-147640129D01*
X223062352Y-147634605D01*
X223077604Y-147630979D01*
X223198054Y-147585824D01*
X223213651Y-147577285D01*
X223214754Y-147576458D01*
X223216035Y-147575980D01*
X223221517Y-147572978D01*
X223221950Y-147573770D01*
X223281261Y-147551613D01*
X223350643Y-147566668D01*
X223400871Y-147616845D01*
X223416315Y-147677287D01*
X223416315Y-149616288D01*
X223396313Y-149684409D01*
X223342657Y-149730902D01*
X223272383Y-149741006D01*
X223204303Y-149708363D01*
X223163678Y-149670413D01*
X223163669Y-149670406D01*
X223160340Y-149667296D01*
X223044196Y-149586724D01*
X222938670Y-149513517D01*
X222938665Y-149513514D01*
X222934917Y-149510914D01*
X222930832Y-149508882D01*
X222930829Y-149508880D01*
X222773170Y-149430446D01*
X222689281Y-149388712D01*
X222684947Y-149387291D01*
X222684944Y-149387290D01*
X222432910Y-149304669D01*
X222432905Y-149304668D01*
X222428577Y-149303249D01*
X222424085Y-149302469D01*
X222162047Y-149256971D01*
X222162039Y-149256970D01*
X222158266Y-149256315D01*
X222151043Y-149255955D01*
X222073157Y-149252078D01*
X222073149Y-149252078D01*
X222071586Y-149252000D01*
X219920303Y-149252000D01*
X219918035Y-149252165D01*
X219918023Y-149252165D01*
X219784491Y-149261854D01*
X219716365Y-149266797D01*
X219711910Y-149267781D01*
X219711907Y-149267781D01*
X219452921Y-149324960D01*
X219452917Y-149324961D01*
X219448461Y-149325945D01*
X219320182Y-149374545D01*
X219196173Y-149421528D01*
X219196170Y-149421529D01*
X219191903Y-149423146D01*
X219033892Y-149510914D01*
X218985564Y-149537758D01*
X218952063Y-149556366D01*
X218911538Y-149587294D01*
X218806710Y-149667296D01*
X218733966Y-149722812D01*
X218730773Y-149726078D01*
X218730771Y-149726080D01*
X218692513Y-149765216D01*
X218542181Y-149918998D01*
X218477623Y-150007692D01*
X218404779Y-150107770D01*
X218380726Y-150140815D01*
X218252982Y-150383616D01*
X218161626Y-150642314D01*
X218149405Y-150704319D01*
X218112517Y-150891477D01*
X218108572Y-150911490D01*
X218108345Y-150916043D01*
X218108345Y-150916046D01*
X218101605Y-151051449D01*
X218094931Y-151185505D01*
X218120988Y-151458620D01*
X218122072Y-151463049D01*
X218122073Y-151463056D01*
X218145856Y-151560247D01*
X218186199Y-151725112D01*
X218187914Y-151729347D01*
X218187915Y-151729349D01*
X218236954Y-151850421D01*
X218289196Y-151979400D01*
X218291500Y-151983335D01*
X218291502Y-151983339D01*
X218423478Y-152208736D01*
X218427822Y-152216155D01*
X218599173Y-152430420D01*
X218799660Y-152617704D01*
X218851809Y-152653881D01*
X218856779Y-152657329D01*
X218901349Y-152712592D01*
X218908966Y-152783179D01*
X218877212Y-152846678D01*
X218846273Y-152870932D01*
X218751639Y-152923644D01*
X218749236Y-152925290D01*
X218749233Y-152925292D01*
X218458800Y-153124247D01*
X218428639Y-153144908D01*
X218196498Y-153337679D01*
X218131682Y-153391503D01*
X218127433Y-153395031D01*
X217850589Y-153671879D01*
X217769175Y-153769924D01*
X217625572Y-153942861D01*
X217600471Y-153973089D01*
X217379211Y-154296092D01*
X217188698Y-154638133D01*
X217114971Y-154805110D01*
X217032942Y-154990891D01*
X217030557Y-154996292D01*
X217029631Y-154999055D01*
X217029629Y-154999060D01*
X216907290Y-155364073D01*
X216906136Y-155367515D01*
X216816499Y-155748635D01*
X216809612Y-155798009D01*
X216766339Y-156108226D01*
X216762409Y-156136399D01*
X216762276Y-156139287D01*
X216762275Y-156139292D01*
X216750438Y-156395326D01*
X216750416Y-156395772D01*
X216748996Y-156424307D01*
X216748815Y-156427933D01*
X216748815Y-156428476D01*
X216748240Y-156437515D01*
X216745453Y-156464716D01*
X216744999Y-156469147D01*
X216745174Y-156473595D01*
X216745719Y-156487455D01*
X216745681Y-156498219D01*
X216744327Y-156527500D01*
X214312500Y-156527500D01*
X214312500Y-147177169D01*
X218492001Y-147177169D01*
X218492371Y-147183990D01*
X218497895Y-147234852D01*
X218501521Y-147250104D01*
X218546676Y-147370554D01*
X218555214Y-147386149D01*
X218631715Y-147488224D01*
X218644276Y-147500785D01*
X218746351Y-147577286D01*
X218761946Y-147585824D01*
X218882394Y-147630978D01*
X218897649Y-147634605D01*
X218948514Y-147640131D01*
X218955328Y-147640500D01*
X220707885Y-147640500D01*
X220723124Y-147636025D01*
X220724329Y-147634635D01*
X220726000Y-147626952D01*
X220726000Y-146414615D01*
X220721525Y-146399376D01*
X220720135Y-146398171D01*
X220712452Y-146396500D01*
X218510116Y-146396500D01*
X218494877Y-146400975D01*
X218493672Y-146402365D01*
X218492001Y-146410048D01*
X218492001Y-147177169D01*
X214312500Y-147177169D01*
X214312500Y-145870385D01*
X218492000Y-145870385D01*
X218496475Y-145885624D01*
X218497865Y-145886829D01*
X218505548Y-145888500D01*
X220707885Y-145888500D01*
X220723124Y-145884025D01*
X220724329Y-145882635D01*
X220726000Y-145874952D01*
X220726000Y-144662616D01*
X220721525Y-144647377D01*
X220720135Y-144646172D01*
X220712452Y-144644501D01*
X218955331Y-144644501D01*
X218948510Y-144644871D01*
X218897648Y-144650395D01*
X218882396Y-144654021D01*
X218761946Y-144699176D01*
X218746351Y-144707714D01*
X218644276Y-144784215D01*
X218631715Y-144796776D01*
X218555214Y-144898851D01*
X218546676Y-144914446D01*
X218501522Y-145034894D01*
X218497895Y-145050149D01*
X218492369Y-145101014D01*
X218492000Y-145107828D01*
X218492000Y-145870385D01*
X214312500Y-145870385D01*
X214312500Y-133952194D01*
X218516135Y-133952194D01*
X218527006Y-134023236D01*
X218529395Y-134033263D01*
X218602709Y-134257570D01*
X218606706Y-134267079D01*
X218715669Y-134476395D01*
X218721163Y-134485120D01*
X218862854Y-134673835D01*
X218869697Y-134681542D01*
X219040310Y-134844584D01*
X219048316Y-134851067D01*
X219243274Y-134984057D01*
X219252226Y-134989143D01*
X219466285Y-135088506D01*
X219475945Y-135092060D01*
X219703369Y-135155130D01*
X219713473Y-135157057D01*
X219906102Y-135177644D01*
X219912794Y-135178000D01*
X220707885Y-135178000D01*
X220723124Y-135173525D01*
X220724329Y-135172135D01*
X220726000Y-135164452D01*
X220726000Y-135159885D01*
X221234000Y-135159885D01*
X221238475Y-135175124D01*
X221239865Y-135176329D01*
X221247548Y-135178000D01*
X222029857Y-135178000D01*
X222035030Y-135177788D01*
X222210350Y-135163374D01*
X222220512Y-135161691D01*
X222449396Y-135104200D01*
X222459151Y-135100879D01*
X222675557Y-135006782D01*
X222684655Y-135001904D01*
X222882787Y-134873727D01*
X222890956Y-134867437D01*
X223065501Y-134708613D01*
X223072526Y-134701080D01*
X223218787Y-134515880D01*
X223224492Y-134507293D01*
X223338536Y-134300703D01*
X223342766Y-134291291D01*
X223421539Y-134068844D01*
X223424173Y-134058873D01*
X223443239Y-133951837D01*
X223441779Y-133938540D01*
X223427222Y-133934000D01*
X221252115Y-133934000D01*
X221236876Y-133938475D01*
X221235671Y-133939865D01*
X221234000Y-133947548D01*
X221234000Y-135159885D01*
X220726000Y-135159885D01*
X220726000Y-133952115D01*
X220721525Y-133936876D01*
X220720135Y-133935671D01*
X220712452Y-133934000D01*
X218531466Y-133934000D01*
X218518122Y-133937918D01*
X218516135Y-133952194D01*
X214312500Y-133952194D01*
X214312500Y-133408163D01*
X218516761Y-133408163D01*
X218518221Y-133421460D01*
X218532778Y-133426000D01*
X220707885Y-133426000D01*
X220723124Y-133421525D01*
X220724329Y-133420135D01*
X220726000Y-133412452D01*
X220726000Y-133407885D01*
X221234000Y-133407885D01*
X221238475Y-133423124D01*
X221239865Y-133424329D01*
X221247548Y-133426000D01*
X223428534Y-133426000D01*
X223441878Y-133422082D01*
X223443865Y-133407806D01*
X223432994Y-133336764D01*
X223430605Y-133326737D01*
X223357291Y-133102430D01*
X223353294Y-133092921D01*
X223244331Y-132883605D01*
X223238837Y-132874880D01*
X223097146Y-132686165D01*
X223090303Y-132678458D01*
X222919690Y-132515416D01*
X222911684Y-132508933D01*
X222716726Y-132375943D01*
X222707774Y-132370857D01*
X222493715Y-132271494D01*
X222484055Y-132267940D01*
X222256631Y-132204870D01*
X222246527Y-132202943D01*
X222053898Y-132182356D01*
X222047206Y-132182000D01*
X221252115Y-132182000D01*
X221236876Y-132186475D01*
X221235671Y-132187865D01*
X221234000Y-132195548D01*
X221234000Y-133407885D01*
X220726000Y-133407885D01*
X220726000Y-132200115D01*
X220721525Y-132184876D01*
X220720135Y-132183671D01*
X220712452Y-132182000D01*
X219930143Y-132182000D01*
X219924970Y-132182212D01*
X219749650Y-132196626D01*
X219739488Y-132198309D01*
X219510604Y-132255800D01*
X219500849Y-132259121D01*
X219284443Y-132353218D01*
X219275345Y-132358096D01*
X219077213Y-132486273D01*
X219069044Y-132492563D01*
X218894499Y-132651387D01*
X218887474Y-132658920D01*
X218741213Y-132844120D01*
X218735508Y-132852707D01*
X218621464Y-133059297D01*
X218617234Y-133068709D01*
X218538461Y-133291156D01*
X218535827Y-133301127D01*
X218516761Y-133408163D01*
X214312500Y-133408163D01*
X214312500Y-127626979D01*
X218099500Y-127626979D01*
X218099501Y-129733020D01*
X218105688Y-129811645D01*
X218154680Y-129994488D01*
X218188687Y-130061230D01*
X218212002Y-130106988D01*
X218240617Y-130163149D01*
X218244770Y-130168278D01*
X218244773Y-130168282D01*
X218353521Y-130302573D01*
X218359743Y-130310257D01*
X218364874Y-130314412D01*
X218501718Y-130425227D01*
X218501722Y-130425230D01*
X218506851Y-130429383D01*
X218512729Y-130432378D01*
X218512732Y-130432380D01*
X218589666Y-130471580D01*
X218675512Y-130515320D01*
X218681885Y-130517028D01*
X218681886Y-130517028D01*
X218852777Y-130562818D01*
X218852783Y-130562819D01*
X218858355Y-130564312D01*
X218864111Y-130564765D01*
X218934523Y-130570307D01*
X218934530Y-130570307D01*
X218936979Y-130570500D01*
X220979172Y-130570500D01*
X223023020Y-130570499D01*
X223071943Y-130566649D01*
X223095891Y-130564765D01*
X223095893Y-130564765D01*
X223101645Y-130564312D01*
X223284488Y-130515320D01*
X223295071Y-130509928D01*
X228385158Y-130509928D01*
X228402037Y-130802659D01*
X228402862Y-130806864D01*
X228402863Y-130806872D01*
X228427072Y-130930265D01*
X228458488Y-131090391D01*
X228459875Y-131094442D01*
X228550866Y-131360205D01*
X228553466Y-131367800D01*
X228586550Y-131433580D01*
X228669804Y-131599111D01*
X228685214Y-131629751D01*
X228727270Y-131690943D01*
X228845080Y-131862358D01*
X228851294Y-131871400D01*
X229048633Y-132088272D01*
X229051922Y-132091022D01*
X229270287Y-132273604D01*
X229270292Y-132273608D01*
X229273579Y-132276356D01*
X229377381Y-132341471D01*
X229518330Y-132429889D01*
X229518334Y-132429891D01*
X229521970Y-132432172D01*
X229525880Y-132433937D01*
X229525881Y-132433938D01*
X229785297Y-132551069D01*
X229785301Y-132551071D01*
X229789209Y-132552835D01*
X229793329Y-132554055D01*
X229793328Y-132554055D01*
X230066239Y-132634895D01*
X230066243Y-132634896D01*
X230070352Y-132636113D01*
X230074586Y-132636761D01*
X230074591Y-132636762D01*
X230355953Y-132679816D01*
X230355955Y-132679816D01*
X230360195Y-132680465D01*
X230509439Y-132682810D01*
X230649085Y-132685004D01*
X230649091Y-132685004D01*
X230653376Y-132685071D01*
X230944470Y-132649845D01*
X231228090Y-132575439D01*
X231498987Y-132463229D01*
X231654716Y-132372229D01*
X231748452Y-132317454D01*
X231748453Y-132317453D01*
X231752150Y-132315293D01*
X231798897Y-132278639D01*
X231979521Y-132137011D01*
X231982893Y-132134367D01*
X232012449Y-132103868D01*
X232128874Y-131983726D01*
X232186946Y-131923800D01*
X232360535Y-131687488D01*
X232362581Y-131683720D01*
X232498396Y-131433580D01*
X232498397Y-131433578D01*
X232500446Y-131429804D01*
X232604091Y-131155515D01*
X232669552Y-130869698D01*
X232695617Y-130577642D01*
X232696090Y-130532500D01*
X232681890Y-130324201D01*
X232676439Y-130244239D01*
X232676438Y-130244233D01*
X232676147Y-130239962D01*
X232616686Y-129952837D01*
X232518808Y-129676438D01*
X232384324Y-129415880D01*
X232215723Y-129175984D01*
X232212798Y-129172836D01*
X232019044Y-128964333D01*
X232019041Y-128964331D01*
X232016123Y-128961190D01*
X231789220Y-128775472D01*
X231539211Y-128622266D01*
X231521969Y-128614697D01*
X231274655Y-128506134D01*
X231270723Y-128504408D01*
X231244272Y-128496873D01*
X230992852Y-128425254D01*
X230992853Y-128425254D01*
X230988724Y-128424078D01*
X230771940Y-128393226D01*
X230702684Y-128383369D01*
X230702682Y-128383369D01*
X230698432Y-128382764D01*
X230694143Y-128382742D01*
X230694136Y-128382741D01*
X230409504Y-128381250D01*
X230409497Y-128381250D01*
X230405218Y-128381228D01*
X230400973Y-128381787D01*
X230400971Y-128381787D01*
X230335651Y-128390387D01*
X230114510Y-128419501D01*
X229831685Y-128496873D01*
X229561977Y-128611913D01*
X229558296Y-128614116D01*
X229314060Y-128760288D01*
X229314056Y-128760291D01*
X229310378Y-128762492D01*
X229081542Y-128945824D01*
X229063978Y-128964333D01*
X228929304Y-129106250D01*
X228879704Y-129158517D01*
X228708600Y-129396634D01*
X228571395Y-129655769D01*
X228551634Y-129709768D01*
X228495645Y-129862767D01*
X228470628Y-129931128D01*
X228408164Y-130217614D01*
X228401277Y-130305126D01*
X228386594Y-130491688D01*
X228385158Y-130509928D01*
X223295071Y-130509928D01*
X223370334Y-130471580D01*
X223447268Y-130432380D01*
X223447271Y-130432378D01*
X223453149Y-130429383D01*
X223458278Y-130425230D01*
X223458282Y-130425227D01*
X223595126Y-130314412D01*
X223600257Y-130310257D01*
X223606479Y-130302573D01*
X223715227Y-130168282D01*
X223715230Y-130168278D01*
X223719383Y-130163149D01*
X223747999Y-130106988D01*
X223771313Y-130061230D01*
X223805320Y-129994488D01*
X223819474Y-129941663D01*
X223852818Y-129817223D01*
X223852819Y-129817217D01*
X223854312Y-129811645D01*
X223857717Y-129768383D01*
X223860307Y-129735477D01*
X223860307Y-129735470D01*
X223860500Y-129733021D01*
X223860499Y-127626980D01*
X223854312Y-127548355D01*
X223805320Y-127365512D01*
X223761580Y-127279666D01*
X223730913Y-127219479D01*
X234390065Y-127219479D01*
X234390066Y-129845520D01*
X234396253Y-129924145D01*
X234445245Y-130106988D01*
X234476476Y-130168282D01*
X234515178Y-130244239D01*
X234531182Y-130275649D01*
X234535335Y-130280778D01*
X234535338Y-130280782D01*
X234644086Y-130415073D01*
X234650308Y-130422757D01*
X234655439Y-130426912D01*
X234792283Y-130537727D01*
X234792287Y-130537730D01*
X234797416Y-130541883D01*
X234803294Y-130544878D01*
X234803297Y-130544880D01*
X234867597Y-130577642D01*
X234966077Y-130627820D01*
X234972450Y-130629528D01*
X234972451Y-130629528D01*
X235143342Y-130675318D01*
X235143348Y-130675319D01*
X235148920Y-130676812D01*
X235154676Y-130677265D01*
X235225088Y-130682807D01*
X235225095Y-130682807D01*
X235227544Y-130683000D01*
X236540033Y-130683000D01*
X237853585Y-130682999D01*
X237905307Y-130678929D01*
X237926456Y-130677265D01*
X237926458Y-130677265D01*
X237932210Y-130676812D01*
X238115053Y-130627820D01*
X238213533Y-130577642D01*
X238277833Y-130544880D01*
X238277836Y-130544878D01*
X238283714Y-130541883D01*
X238288843Y-130537730D01*
X238288847Y-130537727D01*
X238323176Y-130509928D01*
X240385158Y-130509928D01*
X240402037Y-130802659D01*
X240402862Y-130806864D01*
X240402863Y-130806872D01*
X240427072Y-130930265D01*
X240458488Y-131090391D01*
X240459875Y-131094442D01*
X240550866Y-131360205D01*
X240553466Y-131367800D01*
X240586550Y-131433580D01*
X240669804Y-131599111D01*
X240685214Y-131629751D01*
X240727270Y-131690943D01*
X240845080Y-131862358D01*
X240851294Y-131871400D01*
X241048633Y-132088272D01*
X241051922Y-132091022D01*
X241270287Y-132273604D01*
X241270292Y-132273608D01*
X241273579Y-132276356D01*
X241377381Y-132341471D01*
X241518330Y-132429889D01*
X241518334Y-132429891D01*
X241521970Y-132432172D01*
X241525880Y-132433937D01*
X241525881Y-132433938D01*
X241785297Y-132551069D01*
X241785301Y-132551071D01*
X241789209Y-132552835D01*
X241793329Y-132554055D01*
X241793328Y-132554055D01*
X242066239Y-132634895D01*
X242066243Y-132634896D01*
X242070352Y-132636113D01*
X242074586Y-132636761D01*
X242074591Y-132636762D01*
X242355953Y-132679816D01*
X242355955Y-132679816D01*
X242360195Y-132680465D01*
X242509439Y-132682810D01*
X242649085Y-132685004D01*
X242649091Y-132685004D01*
X242653376Y-132685071D01*
X242944470Y-132649845D01*
X243228090Y-132575439D01*
X243498987Y-132463229D01*
X243654716Y-132372229D01*
X243748452Y-132317454D01*
X243748453Y-132317453D01*
X243752150Y-132315293D01*
X243798897Y-132278639D01*
X243979521Y-132137011D01*
X243982893Y-132134367D01*
X244012449Y-132103868D01*
X244128874Y-131983726D01*
X244186946Y-131923800D01*
X244360535Y-131687488D01*
X244362581Y-131683720D01*
X244498396Y-131433580D01*
X244498397Y-131433578D01*
X244500446Y-131429804D01*
X244604091Y-131155515D01*
X244669552Y-130869698D01*
X244695617Y-130577642D01*
X244696090Y-130532500D01*
X244681890Y-130324201D01*
X244676439Y-130244239D01*
X244676438Y-130244233D01*
X244676147Y-130239962D01*
X244616686Y-129952837D01*
X244518808Y-129676438D01*
X244384324Y-129415880D01*
X244215723Y-129175984D01*
X244212798Y-129172836D01*
X244019044Y-128964333D01*
X244019041Y-128964331D01*
X244016123Y-128961190D01*
X243789220Y-128775472D01*
X243539211Y-128622266D01*
X243521969Y-128614697D01*
X243417665Y-128568911D01*
X246491210Y-128568911D01*
X246500506Y-128580926D01*
X246540904Y-128609214D01*
X246550400Y-128614697D01*
X246739929Y-128703076D01*
X246750221Y-128706822D01*
X246952218Y-128760946D01*
X246963011Y-128762849D01*
X247010126Y-128766971D01*
X247076244Y-128792834D01*
X247117884Y-128850337D01*
X247124757Y-128902377D01*
X247108712Y-129106250D01*
X247129095Y-129365244D01*
X247130249Y-129370051D01*
X247130250Y-129370057D01*
X247142167Y-129419693D01*
X247189743Y-129617860D01*
X247191636Y-129622431D01*
X247191637Y-129622433D01*
X247285061Y-129847977D01*
X247289162Y-129857878D01*
X247424904Y-130079390D01*
X247593627Y-130276939D01*
X247597383Y-130280147D01*
X247620123Y-130299569D01*
X247791176Y-130445662D01*
X248012688Y-130581404D01*
X248017258Y-130583297D01*
X248017262Y-130583299D01*
X248244116Y-130677265D01*
X248252706Y-130680823D01*
X248341040Y-130702030D01*
X248500509Y-130740316D01*
X248500515Y-130740317D01*
X248505322Y-130741471D01*
X248764316Y-130761854D01*
X248769246Y-130761466D01*
X248839628Y-130755927D01*
X248909109Y-130770523D01*
X248959668Y-130820366D01*
X248975254Y-130889630D01*
X248965711Y-130930265D01*
X248896866Y-131094442D01*
X248893419Y-131102661D01*
X248831204Y-131347633D01*
X248805881Y-131599111D01*
X248806105Y-131603777D01*
X248806105Y-131603783D01*
X248809945Y-131683720D01*
X248818008Y-131851570D01*
X248822584Y-131874574D01*
X248864963Y-132087627D01*
X248867317Y-132099463D01*
X248868896Y-132103861D01*
X248868898Y-132103868D01*
X248923447Y-132255800D01*
X248952725Y-132337345D01*
X249072357Y-132559990D01*
X249075152Y-132563734D01*
X249075154Y-132563736D01*
X249220791Y-132758768D01*
X249220796Y-132758774D01*
X249223583Y-132762506D01*
X249226892Y-132765786D01*
X249226897Y-132765792D01*
X249345743Y-132883605D01*
X249403082Y-132940446D01*
X249406844Y-132943204D01*
X249406847Y-132943207D01*
X249533013Y-133035715D01*
X249606911Y-133089899D01*
X249611046Y-133092075D01*
X249611050Y-133092077D01*
X249679572Y-133128128D01*
X249830591Y-133207583D01*
X250069209Y-133290912D01*
X250073802Y-133291784D01*
X250312934Y-133337185D01*
X250312937Y-133337185D01*
X250317523Y-133338056D01*
X250437646Y-133342776D01*
X250565410Y-133347796D01*
X250565415Y-133347796D01*
X250570078Y-133347979D01*
X250648222Y-133339421D01*
X250816672Y-133320973D01*
X250816677Y-133320972D01*
X250821325Y-133320463D01*
X250930257Y-133291784D01*
X251061223Y-133257304D01*
X251061226Y-133257303D01*
X251065746Y-133256113D01*
X251297970Y-133156341D01*
X251405339Y-133089899D01*
X251508923Y-133025800D01*
X251508927Y-133025797D01*
X251512896Y-133023341D01*
X251607554Y-132943207D01*
X251702237Y-132863052D01*
X251702238Y-132863051D01*
X251705803Y-132860033D01*
X251776916Y-132778945D01*
X251869371Y-132673521D01*
X251869375Y-132673516D01*
X251872453Y-132670006D01*
X251885421Y-132649845D01*
X252006659Y-132461360D01*
X252006661Y-132461357D01*
X252009184Y-132457434D01*
X252112993Y-132226986D01*
X252181599Y-131983726D01*
X252190435Y-131914270D01*
X252218874Y-131849218D01*
X252277968Y-131809868D01*
X252348956Y-131808714D01*
X252409298Y-131846121D01*
X252419113Y-131858608D01*
X252421309Y-131862358D01*
X252529833Y-131998061D01*
X252556756Y-132063753D01*
X252543890Y-132133574D01*
X252533300Y-132150904D01*
X252377835Y-132364490D01*
X252377830Y-132364497D01*
X252375147Y-132368184D01*
X252249937Y-132606169D01*
X252248418Y-132610470D01*
X252248416Y-132610475D01*
X252207583Y-132726106D01*
X252160394Y-132859735D01*
X252159514Y-132864201D01*
X252114600Y-133092077D01*
X252108392Y-133123572D01*
X252108165Y-133128125D01*
X252108165Y-133128128D01*
X252097280Y-133346779D01*
X252095021Y-133392152D01*
X252120562Y-133659849D01*
X252184479Y-133921055D01*
X252186194Y-133925290D01*
X252186195Y-133925292D01*
X252252716Y-134089525D01*
X252285433Y-134170299D01*
X252421309Y-134402358D01*
X252589261Y-134612373D01*
X252592591Y-134615483D01*
X252592594Y-134615487D01*
X252782441Y-134792831D01*
X252782446Y-134792835D01*
X252785772Y-134795942D01*
X252855889Y-134844584D01*
X253002970Y-134946619D01*
X253002976Y-134946622D01*
X253006723Y-134949222D01*
X253010808Y-134951254D01*
X253010811Y-134951256D01*
X253127105Y-135009111D01*
X253247487Y-135069000D01*
X253251821Y-135070421D01*
X253251824Y-135070422D01*
X253317831Y-135092060D01*
X253503020Y-135152768D01*
X253767968Y-135198770D01*
X253801327Y-135200431D01*
X253851362Y-135202922D01*
X253851371Y-135202922D01*
X253852933Y-135203000D01*
X254115816Y-135203000D01*
X254118084Y-135202835D01*
X254118096Y-135202835D01*
X254246928Y-135193487D01*
X254315708Y-135188496D01*
X254320163Y-135187512D01*
X254320166Y-135187512D01*
X254573837Y-135131507D01*
X254573841Y-135131506D01*
X254578297Y-135130522D01*
X254704031Y-135082886D01*
X254825496Y-135036867D01*
X254825499Y-135036866D01*
X254829766Y-135035249D01*
X255064849Y-134904672D01*
X255203915Y-134798541D01*
X255274995Y-134744295D01*
X255274999Y-134744291D01*
X255278620Y-134741528D01*
X255295244Y-134724523D01*
X255463414Y-134552492D01*
X255466600Y-134549233D01*
X255624853Y-134331816D01*
X255750063Y-134093831D01*
X255771383Y-134033459D01*
X255812644Y-133916616D01*
X255839606Y-133840265D01*
X255858766Y-133743054D01*
X255890727Y-133580900D01*
X255890728Y-133580894D01*
X255891608Y-133576428D01*
X255891924Y-133570084D01*
X255904752Y-133312417D01*
X255904752Y-133312411D01*
X255904979Y-133307848D01*
X255879438Y-133040151D01*
X255875927Y-133025800D01*
X255818337Y-132790453D01*
X255815521Y-132778945D01*
X255810194Y-132765792D01*
X255716280Y-132533930D01*
X255716280Y-132533929D01*
X255714567Y-132529701D01*
X255578691Y-132297642D01*
X255470167Y-132161939D01*
X255443244Y-132096247D01*
X255456110Y-132026426D01*
X255466700Y-132009096D01*
X255622165Y-131795510D01*
X255622170Y-131795503D01*
X255624853Y-131791816D01*
X255750063Y-131553831D01*
X255755849Y-131537448D01*
X255818439Y-131360205D01*
X255839606Y-131300265D01*
X255891608Y-131036428D01*
X255891835Y-131031872D01*
X255904752Y-130772417D01*
X255904752Y-130772411D01*
X255904979Y-130767848D01*
X255879438Y-130500151D01*
X255877368Y-130491688D01*
X255816607Y-130243384D01*
X255815521Y-130238945D01*
X255782439Y-130157268D01*
X255716280Y-129993930D01*
X255716280Y-129993929D01*
X255714567Y-129989701D01*
X255684289Y-129937990D01*
X255667129Y-129869099D01*
X255689940Y-129801866D01*
X255695092Y-129795041D01*
X255759383Y-129715649D01*
X255787840Y-129659800D01*
X255811661Y-129613048D01*
X255845320Y-129546988D01*
X255847028Y-129540614D01*
X255892818Y-129369723D01*
X255892819Y-129369717D01*
X255894312Y-129364145D01*
X255895091Y-129354247D01*
X255900307Y-129287977D01*
X255900307Y-129287970D01*
X255900500Y-129285521D01*
X255900499Y-127254480D01*
X255894312Y-127175855D01*
X255845320Y-126993012D01*
X255771268Y-126847676D01*
X255762380Y-126830232D01*
X255762378Y-126830229D01*
X255759383Y-126824351D01*
X255755230Y-126819222D01*
X255755227Y-126819218D01*
X255644412Y-126682374D01*
X255640257Y-126677243D01*
X255591905Y-126638088D01*
X255498282Y-126562273D01*
X255498278Y-126562270D01*
X255493149Y-126558117D01*
X255487271Y-126555122D01*
X255487268Y-126555120D01*
X255410334Y-126515920D01*
X255324488Y-126472180D01*
X255318114Y-126470472D01*
X255147223Y-126424682D01*
X255147217Y-126424681D01*
X255141645Y-126423188D01*
X255131747Y-126422409D01*
X255065477Y-126417193D01*
X255065470Y-126417193D01*
X255063021Y-126417000D01*
X254000431Y-126417000D01*
X252936980Y-126417001D01*
X252888057Y-126420851D01*
X252864109Y-126422735D01*
X252864107Y-126422735D01*
X252858355Y-126423188D01*
X252675512Y-126472180D01*
X252589666Y-126515920D01*
X252512732Y-126555120D01*
X252512729Y-126555122D01*
X252506851Y-126558117D01*
X252501722Y-126562270D01*
X252501718Y-126562273D01*
X252408095Y-126638088D01*
X252359743Y-126677243D01*
X252355588Y-126682374D01*
X252244773Y-126819218D01*
X252244770Y-126819222D01*
X252240617Y-126824351D01*
X252237622Y-126830229D01*
X252237620Y-126830232D01*
X252228732Y-126847676D01*
X252154680Y-126993012D01*
X252152972Y-126999385D01*
X252152972Y-126999386D01*
X252107182Y-127170277D01*
X252107181Y-127170283D01*
X252105688Y-127175855D01*
X252105235Y-127181609D01*
X252105235Y-127181611D01*
X252099694Y-127252020D01*
X252099500Y-127254479D01*
X252099501Y-129285520D01*
X252105688Y-129364145D01*
X252154680Y-129546988D01*
X252188339Y-129613048D01*
X252212161Y-129659800D01*
X252240617Y-129715649D01*
X252305821Y-129796169D01*
X252333145Y-129861694D01*
X252319407Y-129934128D01*
X252249937Y-130066169D01*
X252248418Y-130070470D01*
X252248416Y-130070475D01*
X252237773Y-130100614D01*
X252160394Y-130319735D01*
X252108392Y-130583572D01*
X252107158Y-130583329D01*
X252081226Y-130643343D01*
X252022301Y-130682945D01*
X251951319Y-130684402D01*
X251890818Y-130647253D01*
X251885378Y-130640809D01*
X251770712Y-130495356D01*
X251770709Y-130495353D01*
X251767820Y-130491688D01*
X251583725Y-130318508D01*
X251376054Y-130174441D01*
X251363565Y-130168282D01*
X251153558Y-130064718D01*
X251153555Y-130064717D01*
X251149370Y-130062653D01*
X250908652Y-129985599D01*
X250904045Y-129984849D01*
X250904042Y-129984848D01*
X250706009Y-129952596D01*
X250659189Y-129944971D01*
X250528811Y-129943264D01*
X250411136Y-129941724D01*
X250411133Y-129941724D01*
X250406461Y-129941663D01*
X250401831Y-129942293D01*
X250400639Y-129942366D01*
X250331424Y-129926559D01*
X250281743Y-129875841D01*
X250267370Y-129806314D01*
X250276540Y-129768383D01*
X250292212Y-129730549D01*
X250338889Y-129617860D01*
X250386465Y-129419693D01*
X250398382Y-129370057D01*
X250398383Y-129370051D01*
X250399537Y-129365244D01*
X250412594Y-129199343D01*
X250437880Y-129133002D01*
X250495018Y-129090862D01*
X250527223Y-129083709D01*
X250565613Y-129080350D01*
X250576417Y-129078445D01*
X250778411Y-129024322D01*
X250788703Y-129020576D01*
X250978232Y-128932197D01*
X250987728Y-128926714D01*
X251028964Y-128897840D01*
X251037339Y-128887363D01*
X251030270Y-128873915D01*
X249993738Y-127837382D01*
X250716224Y-127837382D01*
X250716355Y-127839216D01*
X250720606Y-127845830D01*
X251390207Y-128515430D01*
X251401977Y-128521857D01*
X251413992Y-128512561D01*
X251442282Y-128472157D01*
X251447762Y-128462667D01*
X251536142Y-128273137D01*
X251539888Y-128262845D01*
X251594012Y-128060849D01*
X251595915Y-128050054D01*
X251614142Y-127841725D01*
X251614142Y-127830775D01*
X251595915Y-127622446D01*
X251594012Y-127611651D01*
X251539888Y-127409655D01*
X251536142Y-127399363D01*
X251447762Y-127209833D01*
X251442282Y-127200343D01*
X251413405Y-127159101D01*
X251402929Y-127150727D01*
X251389482Y-127157795D01*
X250723837Y-127823439D01*
X250716224Y-127837382D01*
X249993738Y-127837382D01*
X249992606Y-127836250D01*
X249313427Y-127157072D01*
X249301655Y-127150644D01*
X249289640Y-127159940D01*
X249261350Y-127200343D01*
X249255870Y-127209833D01*
X249166410Y-127401679D01*
X249119492Y-127454964D01*
X249051215Y-127474425D01*
X249032506Y-127472878D01*
X249028115Y-127472183D01*
X249023310Y-127471029D01*
X249018382Y-127470641D01*
X249018381Y-127470641D01*
X248769246Y-127451034D01*
X248764316Y-127450646D01*
X248560444Y-127466691D01*
X248490964Y-127452095D01*
X248440404Y-127402252D01*
X248425037Y-127352060D01*
X248420915Y-127304945D01*
X248419012Y-127294152D01*
X248364888Y-127092155D01*
X248361142Y-127081863D01*
X248272762Y-126892333D01*
X248267282Y-126882843D01*
X248238405Y-126841601D01*
X248227930Y-126833227D01*
X248214481Y-126840296D01*
X247176816Y-127877960D01*
X246497638Y-128557139D01*
X246491210Y-128568911D01*
X243417665Y-128568911D01*
X243274655Y-128506134D01*
X243270723Y-128504408D01*
X243244272Y-128496873D01*
X242992852Y-128425254D01*
X242992853Y-128425254D01*
X242988724Y-128424078D01*
X242771940Y-128393226D01*
X242702684Y-128383369D01*
X242702682Y-128383369D01*
X242698432Y-128382764D01*
X242694143Y-128382742D01*
X242694136Y-128382741D01*
X242409504Y-128381250D01*
X242409497Y-128381250D01*
X242405218Y-128381228D01*
X242400973Y-128381787D01*
X242400971Y-128381787D01*
X242335651Y-128390387D01*
X242114510Y-128419501D01*
X241831685Y-128496873D01*
X241561977Y-128611913D01*
X241558296Y-128614116D01*
X241314060Y-128760288D01*
X241314056Y-128760291D01*
X241310378Y-128762492D01*
X241081542Y-128945824D01*
X241063978Y-128964333D01*
X240929304Y-129106250D01*
X240879704Y-129158517D01*
X240708600Y-129396634D01*
X240571395Y-129655769D01*
X240551634Y-129709768D01*
X240495645Y-129862767D01*
X240470628Y-129931128D01*
X240408164Y-130217614D01*
X240401277Y-130305126D01*
X240386594Y-130491688D01*
X240385158Y-130509928D01*
X238323176Y-130509928D01*
X238425691Y-130426912D01*
X238430822Y-130422757D01*
X238437044Y-130415073D01*
X238545792Y-130280782D01*
X238545795Y-130280778D01*
X238549948Y-130275649D01*
X238565953Y-130244239D01*
X238604654Y-130168282D01*
X238635885Y-130106988D01*
X238647211Y-130064718D01*
X238683383Y-129929723D01*
X238683384Y-129929717D01*
X238684877Y-129924145D01*
X238688679Y-129875841D01*
X238690872Y-129847977D01*
X238690872Y-129847970D01*
X238691065Y-129845521D01*
X238691064Y-127524225D01*
X245914490Y-127524225D01*
X245932717Y-127732554D01*
X245934620Y-127743349D01*
X245988744Y-127945345D01*
X245992490Y-127955637D01*
X246080870Y-128145167D01*
X246086350Y-128154657D01*
X246115227Y-128195899D01*
X246125703Y-128204273D01*
X246139150Y-128197205D01*
X246804795Y-127531561D01*
X246812408Y-127517618D01*
X246812277Y-127515784D01*
X246808026Y-127509170D01*
X246138425Y-126839570D01*
X246126655Y-126833143D01*
X246114640Y-126842439D01*
X246086350Y-126882843D01*
X246080870Y-126892333D01*
X245992490Y-127081863D01*
X245988744Y-127092155D01*
X245934620Y-127294151D01*
X245932717Y-127304946D01*
X245914490Y-127513275D01*
X245914490Y-127524225D01*
X238691064Y-127524225D01*
X238691064Y-127219480D01*
X238685647Y-127150644D01*
X238685330Y-127146609D01*
X238685330Y-127146607D01*
X238684877Y-127140855D01*
X238635885Y-126958012D01*
X238570778Y-126830232D01*
X238552945Y-126795232D01*
X238552943Y-126795229D01*
X238549948Y-126789351D01*
X238545795Y-126784222D01*
X238545792Y-126784218D01*
X238434977Y-126647374D01*
X238430822Y-126642243D01*
X238368964Y-126592151D01*
X238288847Y-126527273D01*
X238288843Y-126527270D01*
X238283714Y-126523117D01*
X238277836Y-126520122D01*
X238277833Y-126520120D01*
X238180392Y-126470472D01*
X238174828Y-126467637D01*
X246491293Y-126467637D01*
X246498361Y-126481084D01*
X247164005Y-127146729D01*
X247177948Y-127154342D01*
X247179782Y-127154211D01*
X247186396Y-127149960D01*
X247551218Y-126785137D01*
X249666293Y-126785137D01*
X249673361Y-126798584D01*
X250339005Y-127464229D01*
X250352948Y-127471842D01*
X250354782Y-127471711D01*
X250361396Y-127467460D01*
X251030996Y-126797859D01*
X251037423Y-126786089D01*
X251028129Y-126774075D01*
X250987728Y-126745786D01*
X250978232Y-126740303D01*
X250788703Y-126651924D01*
X250778411Y-126648178D01*
X250576415Y-126594054D01*
X250565620Y-126592151D01*
X250357291Y-126573924D01*
X250346341Y-126573924D01*
X250138012Y-126592151D01*
X250127217Y-126594054D01*
X249925221Y-126648178D01*
X249914929Y-126651924D01*
X249725399Y-126740304D01*
X249715909Y-126745784D01*
X249674667Y-126774661D01*
X249666293Y-126785137D01*
X247551218Y-126785137D01*
X247855996Y-126480359D01*
X247862423Y-126468589D01*
X247853129Y-126456575D01*
X247812728Y-126428286D01*
X247803232Y-126422803D01*
X247613703Y-126334424D01*
X247603411Y-126330678D01*
X247401415Y-126276554D01*
X247390620Y-126274651D01*
X247182291Y-126256424D01*
X247171341Y-126256424D01*
X246963012Y-126274651D01*
X246952217Y-126276554D01*
X246750221Y-126330678D01*
X246739929Y-126334424D01*
X246550399Y-126422804D01*
X246540909Y-126428284D01*
X246499667Y-126457161D01*
X246491293Y-126467637D01*
X238174828Y-126467637D01*
X238115053Y-126437180D01*
X238081860Y-126428286D01*
X237937788Y-126389682D01*
X237937782Y-126389681D01*
X237932210Y-126388188D01*
X237922312Y-126387409D01*
X237856042Y-126382193D01*
X237856035Y-126382193D01*
X237853586Y-126382000D01*
X236541097Y-126382000D01*
X235227545Y-126382001D01*
X235178622Y-126385851D01*
X235154674Y-126387735D01*
X235154672Y-126387735D01*
X235148920Y-126388188D01*
X235040663Y-126417195D01*
X235018297Y-126423188D01*
X234966077Y-126437180D01*
X234900738Y-126470472D01*
X234803297Y-126520120D01*
X234803294Y-126520122D01*
X234797416Y-126523117D01*
X234792287Y-126527270D01*
X234792283Y-126527273D01*
X234712166Y-126592151D01*
X234650308Y-126642243D01*
X234646153Y-126647374D01*
X234535338Y-126784218D01*
X234535335Y-126784222D01*
X234531182Y-126789351D01*
X234528187Y-126795229D01*
X234528185Y-126795232D01*
X234510352Y-126830232D01*
X234445245Y-126958012D01*
X234443537Y-126964385D01*
X234443537Y-126964386D01*
X234397747Y-127135277D01*
X234397746Y-127135283D01*
X234396253Y-127140855D01*
X234395800Y-127146609D01*
X234395800Y-127146611D01*
X234390259Y-127217020D01*
X234390065Y-127219479D01*
X223730913Y-127219479D01*
X223722380Y-127202732D01*
X223722378Y-127202729D01*
X223719383Y-127196851D01*
X223715230Y-127191722D01*
X223715227Y-127191718D01*
X223604412Y-127054874D01*
X223600257Y-127049743D01*
X223592573Y-127043521D01*
X223458282Y-126934773D01*
X223458278Y-126934770D01*
X223453149Y-126930617D01*
X223447271Y-126927622D01*
X223447268Y-126927620D01*
X223359387Y-126882843D01*
X223284488Y-126844680D01*
X223278114Y-126842972D01*
X223107223Y-126797182D01*
X223107217Y-126797181D01*
X223101645Y-126795688D01*
X223091747Y-126794909D01*
X223025477Y-126789693D01*
X223025470Y-126789693D01*
X223023021Y-126789500D01*
X220980828Y-126789500D01*
X218936980Y-126789501D01*
X218888057Y-126793351D01*
X218864109Y-126795235D01*
X218864107Y-126795235D01*
X218858355Y-126795688D01*
X218770539Y-126819218D01*
X218683876Y-126842439D01*
X218675512Y-126844680D01*
X218600613Y-126882843D01*
X218512732Y-126927620D01*
X218512729Y-126927622D01*
X218506851Y-126930617D01*
X218501722Y-126934770D01*
X218501718Y-126934773D01*
X218367427Y-127043521D01*
X218359743Y-127049743D01*
X218355588Y-127054874D01*
X218244773Y-127191718D01*
X218244770Y-127191722D01*
X218240617Y-127196851D01*
X218237622Y-127202729D01*
X218237620Y-127202732D01*
X218198421Y-127279666D01*
X218154680Y-127365512D01*
X218152972Y-127371885D01*
X218152972Y-127371886D01*
X218107182Y-127542777D01*
X218107181Y-127542783D01*
X218105688Y-127548355D01*
X218105235Y-127554109D01*
X218105235Y-127554111D01*
X218099694Y-127624520D01*
X218099500Y-127626979D01*
X214312500Y-127626979D01*
X214312500Y-126045750D01*
X214332502Y-125977629D01*
X214386158Y-125931136D01*
X214438500Y-125919750D01*
X256414000Y-125919750D01*
X256482121Y-125939752D01*
G37*
%TD.AperFunction*%
%TA.AperFunction,Conductor*%
G36*
X239405763Y-149776574D02*
G01*
X240377936Y-150166641D01*
X240384338Y-150172903D01*
X240384438Y-150181857D01*
X240377936Y-150188359D01*
X239406016Y-150578325D01*
X239405766Y-150578425D01*
X239396812Y-150578325D01*
X239392646Y-150575318D01*
X239389454Y-150571710D01*
X239389450Y-150571706D01*
X239389104Y-150571315D01*
X239374066Y-150559480D01*
X239353433Y-150546633D01*
X239353235Y-150546531D01*
X239353227Y-150546527D01*
X239327825Y-150533511D01*
X239327642Y-150533417D01*
X239297129Y-150520472D01*
X239296947Y-150520409D01*
X239296939Y-150520406D01*
X239276996Y-150513512D01*
X239262332Y-150508442D01*
X239223686Y-150497967D01*
X239223504Y-150497931D01*
X239223499Y-150497930D01*
X239181828Y-150489730D01*
X239181829Y-150489730D01*
X239181630Y-150489691D01*
X239136599Y-150484254D01*
X239100252Y-150482761D01*
X239092126Y-150478998D01*
X239089032Y-150471071D01*
X239089032Y-149883929D01*
X239092459Y-149875656D01*
X239100251Y-149872239D01*
X239136380Y-149870754D01*
X239136599Y-149870745D01*
X239181630Y-149865308D01*
X239188231Y-149864009D01*
X239223499Y-149857069D01*
X239223504Y-149857068D01*
X239223686Y-149857032D01*
X239262332Y-149846557D01*
X239276996Y-149841487D01*
X239296939Y-149834593D01*
X239296947Y-149834590D01*
X239297129Y-149834527D01*
X239327642Y-149821582D01*
X239336441Y-149817073D01*
X239353227Y-149808472D01*
X239353235Y-149808468D01*
X239353433Y-149808366D01*
X239374066Y-149795519D01*
X239389104Y-149783684D01*
X239392645Y-149779681D01*
X239400693Y-149775755D01*
X239405763Y-149776574D01*
G37*
%TD.AperFunction*%
%TA.AperFunction,Conductor*%
G36*
X233231821Y-150463060D02*
G01*
X234039348Y-151232928D01*
X234042972Y-151241117D01*
X234041782Y-151246543D01*
X234031891Y-151266718D01*
X234020515Y-151302853D01*
X234011228Y-151346875D01*
X234003828Y-151398409D01*
X233998116Y-151457080D01*
X233993892Y-151522514D01*
X233990955Y-151594335D01*
X233989104Y-151672169D01*
X233988486Y-151725707D01*
X233988141Y-151755640D01*
X233987901Y-151832711D01*
X233984448Y-151840974D01*
X233976201Y-151844375D01*
X233389034Y-151844375D01*
X233380761Y-151840948D01*
X233377374Y-151833643D01*
X233374696Y-151801373D01*
X233374656Y-151800891D01*
X233364666Y-151761305D01*
X233349550Y-151725707D01*
X233330564Y-151694186D01*
X233308962Y-151666833D01*
X233286001Y-151643737D01*
X233262936Y-151624988D01*
X233260824Y-151623609D01*
X233241299Y-151610858D01*
X233241292Y-151610854D01*
X233241021Y-151610677D01*
X233232611Y-151606459D01*
X233221901Y-151601086D01*
X233221894Y-151601083D01*
X233221513Y-151600892D01*
X233221107Y-151600759D01*
X233221103Y-151600758D01*
X233213788Y-151598373D01*
X233206985Y-151592550D01*
X233205715Y-151587183D01*
X233206082Y-151522629D01*
X233212048Y-150471462D01*
X233215522Y-150463208D01*
X233223814Y-150459828D01*
X233231821Y-150463060D01*
G37*
%TD.AperFunction*%
%TA.AperFunction,Conductor*%
G36*
X246449775Y-135473850D02*
G01*
X247273500Y-135541500D01*
X247281465Y-135545593D01*
X247284156Y-135554574D01*
X247191559Y-136315871D01*
X247114191Y-136951954D01*
X247109791Y-136959753D01*
X247104935Y-136962000D01*
X246985783Y-136986498D01*
X246901597Y-137003807D01*
X246901001Y-137003914D01*
X246712121Y-137032657D01*
X246711796Y-137032702D01*
X246540428Y-137053834D01*
X246381930Y-137074422D01*
X246334718Y-137082944D01*
X246231974Y-137101491D01*
X246231967Y-137101493D01*
X246231710Y-137101539D01*
X246085010Y-137142281D01*
X245937071Y-137203742D01*
X245783135Y-137293015D01*
X245618443Y-137417195D01*
X245446855Y-137575433D01*
X245446499Y-137575761D01*
X245438094Y-137578850D01*
X245430294Y-137575433D01*
X245015166Y-137160305D01*
X245011739Y-137152032D01*
X245014871Y-137144064D01*
X245187032Y-136958939D01*
X245187034Y-136958937D01*
X245187202Y-136958756D01*
X245324050Y-136783395D01*
X245426043Y-136621155D01*
X245501490Y-136466950D01*
X245558705Y-136315693D01*
X245605996Y-136162297D01*
X245651648Y-136001775D01*
X245651704Y-136001584D01*
X245703981Y-135828988D01*
X245704150Y-135828475D01*
X245771323Y-135638756D01*
X245771589Y-135638073D01*
X245858849Y-135433354D01*
X245865245Y-135427087D01*
X245870570Y-135426281D01*
X246449775Y-135473850D01*
G37*
%TD.AperFunction*%
%TA.AperFunction,Conductor*%
G36*
X236576125Y-154316267D02*
G01*
X236706707Y-154382606D01*
X236707023Y-154382773D01*
X236826562Y-154448171D01*
X236826678Y-154448235D01*
X236933864Y-154508452D01*
X237034333Y-154562750D01*
X237034441Y-154562802D01*
X237034459Y-154562811D01*
X237109342Y-154598714D01*
X237133850Y-154610464D01*
X237238222Y-154650949D01*
X237238483Y-154651023D01*
X237238489Y-154651025D01*
X237340457Y-154679933D01*
X237353252Y-154683560D01*
X237413701Y-154694635D01*
X237484493Y-154707606D01*
X237484501Y-154707607D01*
X237484746Y-154707652D01*
X237484992Y-154707676D01*
X237485000Y-154707677D01*
X237638310Y-154722561D01*
X237638316Y-154722561D01*
X237638508Y-154722580D01*
X237638699Y-154722585D01*
X237638709Y-154722586D01*
X237808971Y-154727380D01*
X237817145Y-154731038D01*
X237820342Y-154739075D01*
X237820342Y-155325925D01*
X237816915Y-155334198D01*
X237808971Y-155337620D01*
X237638709Y-155342413D01*
X237638699Y-155342414D01*
X237638508Y-155342419D01*
X237638316Y-155342438D01*
X237638310Y-155342438D01*
X237485000Y-155357322D01*
X237484992Y-155357323D01*
X237484746Y-155357347D01*
X237484501Y-155357392D01*
X237484493Y-155357393D01*
X237413701Y-155370364D01*
X237353252Y-155381439D01*
X237352976Y-155381517D01*
X237352977Y-155381517D01*
X237238489Y-155413974D01*
X237238483Y-155413976D01*
X237238222Y-155414050D01*
X237133850Y-155454535D01*
X237133646Y-155454633D01*
X237034459Y-155502188D01*
X237034441Y-155502197D01*
X237034333Y-155502249D01*
X237034215Y-155502313D01*
X236933864Y-155556547D01*
X236826678Y-155616764D01*
X236826562Y-155616828D01*
X236707023Y-155682226D01*
X236706707Y-155682393D01*
X236576125Y-155748733D01*
X236567197Y-155749425D01*
X236562716Y-155746735D01*
X236216765Y-155414050D01*
X235820000Y-155032500D01*
X236331162Y-154540940D01*
X236332058Y-154540078D01*
X236332059Y-154540078D01*
X236562716Y-154318265D01*
X236571055Y-154315000D01*
X236576125Y-154316267D01*
G37*
%TD.AperFunction*%
%TA.AperFunction,Conductor*%
G36*
X230475443Y-149480715D02*
G01*
X230890415Y-149895687D01*
X230893842Y-149903960D01*
X230890649Y-149911993D01*
X230798807Y-150009250D01*
X230774510Y-150034979D01*
X230677292Y-150153484D01*
X230602238Y-150262844D01*
X230544789Y-150366663D01*
X230500381Y-150468546D01*
X230464454Y-150572095D01*
X230464419Y-150572213D01*
X230464418Y-150572217D01*
X230432446Y-150680915D01*
X230432434Y-150680958D01*
X230399835Y-150798471D01*
X230399796Y-150798610D01*
X230361989Y-150928624D01*
X230361879Y-150928979D01*
X230316899Y-151067127D01*
X230311079Y-151073933D01*
X230306005Y-151075203D01*
X229643151Y-151088161D01*
X229287953Y-151095104D01*
X229279614Y-151091839D01*
X229276026Y-151083177D01*
X229283889Y-150680958D01*
X229295927Y-150065125D01*
X229299515Y-150056922D01*
X229304001Y-150054231D01*
X229442162Y-150009247D01*
X229442496Y-150009143D01*
X229482883Y-149997399D01*
X229572486Y-149971343D01*
X229572625Y-149971304D01*
X229690214Y-149938683D01*
X229799034Y-149906675D01*
X229799145Y-149906636D01*
X229799159Y-149906632D01*
X229844430Y-149890925D01*
X229902583Y-149870748D01*
X229957557Y-149846786D01*
X230004212Y-149826451D01*
X230004217Y-149826449D01*
X230004466Y-149826340D01*
X230035994Y-149808894D01*
X230108031Y-149769032D01*
X230108038Y-149769028D01*
X230108285Y-149768891D01*
X230217645Y-149693837D01*
X230336150Y-149596619D01*
X230459136Y-149480481D01*
X230467505Y-149477293D01*
X230475443Y-149480715D01*
G37*
%TD.AperFunction*%
%TA.AperFunction,Conductor*%
G36*
X237691996Y-151785637D02*
G01*
X238107014Y-152200656D01*
X238110441Y-152208929D01*
X238107064Y-152217151D01*
X237971909Y-152353949D01*
X237851605Y-152478984D01*
X237749201Y-152588361D01*
X237659573Y-152686455D01*
X237659529Y-152686503D01*
X237659507Y-152686528D01*
X237577597Y-152777645D01*
X237498194Y-152866255D01*
X237498150Y-152866305D01*
X237416109Y-152956812D01*
X237326364Y-153053529D01*
X237326311Y-153053585D01*
X237223818Y-153160804D01*
X237223693Y-153160933D01*
X237108972Y-153277313D01*
X237100724Y-153280799D01*
X237095707Y-153279708D01*
X236169049Y-152848813D01*
X236162992Y-152842217D01*
X236163627Y-152832758D01*
X236637476Y-151931696D01*
X236644359Y-151925969D01*
X236649661Y-151925586D01*
X236766668Y-151944120D01*
X236767093Y-151944195D01*
X236882174Y-151966796D01*
X236882173Y-151966800D01*
X236882218Y-151966805D01*
X236960606Y-151982531D01*
X236970936Y-151984603D01*
X236989294Y-151988286D01*
X237090318Y-152004711D01*
X237090546Y-152004729D01*
X237090550Y-152004729D01*
X237186933Y-152012131D01*
X237186935Y-152012131D01*
X237187312Y-152012160D01*
X237251126Y-152008507D01*
X237281840Y-152006749D01*
X237281841Y-152006749D01*
X237282345Y-152006720D01*
X237282835Y-152006605D01*
X237282838Y-152006605D01*
X237376951Y-151984603D01*
X237376952Y-151984603D01*
X237377481Y-151984479D01*
X237417530Y-151966800D01*
X237474328Y-151941728D01*
X237474333Y-151941725D01*
X237474789Y-151941524D01*
X237515460Y-151914456D01*
X237575988Y-151874175D01*
X237575995Y-151874170D01*
X237576334Y-151873944D01*
X237675939Y-151785175D01*
X237684395Y-151782229D01*
X237691996Y-151785637D01*
G37*
%TD.AperFunction*%
%TA.AperFunction,Conductor*%
G36*
X235150693Y-153912239D02*
G01*
X235256129Y-154010186D01*
X235361115Y-154091226D01*
X235460120Y-154150832D01*
X235555874Y-154192154D01*
X235651107Y-154218343D01*
X235696467Y-154224955D01*
X235748279Y-154232508D01*
X235748286Y-154232509D01*
X235748549Y-154232547D01*
X235850931Y-154237916D01*
X235851076Y-154237916D01*
X235937657Y-154237668D01*
X235960983Y-154237601D01*
X236081435Y-154234751D01*
X236081516Y-154234750D01*
X236206778Y-154232654D01*
X236215108Y-154235942D01*
X236217923Y-154240229D01*
X236581078Y-155204610D01*
X236049355Y-155381439D01*
X235716001Y-155492299D01*
X235605265Y-155529125D01*
X235603337Y-155529766D01*
X235594405Y-155529125D01*
X235590351Y-155525771D01*
X235490317Y-155394966D01*
X235490008Y-155394543D01*
X235469769Y-155365468D01*
X235404434Y-155271612D01*
X235404185Y-155271239D01*
X235376814Y-155228511D01*
X235332057Y-155158644D01*
X235331933Y-155158445D01*
X235267358Y-155052255D01*
X235267352Y-155052245D01*
X235204532Y-154948704D01*
X235204503Y-154948656D01*
X235137560Y-154843884D01*
X235060652Y-154734068D01*
X234967903Y-154615333D01*
X234853438Y-154483807D01*
X234719305Y-154343885D01*
X234716055Y-154335542D01*
X234719479Y-154327516D01*
X235134457Y-153912538D01*
X235142730Y-153909111D01*
X235150693Y-153912239D01*
G37*
%TD.AperFunction*%
%TA.AperFunction,Conductor*%
G36*
X244754016Y-152755661D02*
G01*
X244757604Y-152764323D01*
X244753461Y-152976254D01*
X244741035Y-153611936D01*
X244737696Y-153782720D01*
X244734108Y-153790924D01*
X244730062Y-153793463D01*
X244520083Y-153871227D01*
X244519973Y-153871274D01*
X244519955Y-153871281D01*
X244345543Y-153945618D01*
X244335973Y-153949697D01*
X244335818Y-153949774D01*
X244335817Y-153949774D01*
X244176585Y-154028394D01*
X244176572Y-154028401D01*
X244176422Y-154028475D01*
X244032644Y-154109935D01*
X244032533Y-154110005D01*
X244032525Y-154110010D01*
X243895954Y-154196386D01*
X243895924Y-154196406D01*
X243895854Y-154196450D01*
X243895773Y-154196505D01*
X243757304Y-154290367D01*
X243757287Y-154290379D01*
X243757265Y-154290394D01*
X243608140Y-154394104D01*
X243608090Y-154394139D01*
X243439621Y-154510007D01*
X243439458Y-154510117D01*
X243242964Y-154640446D01*
X243242739Y-154640592D01*
X243019206Y-154781602D01*
X243010381Y-154783117D01*
X243002994Y-154777829D01*
X242696102Y-154278141D01*
X242694693Y-154269298D01*
X242699650Y-154262238D01*
X242822374Y-154181654D01*
X242900228Y-154130533D01*
X242959276Y-154085022D01*
X243070061Y-153999634D01*
X243070067Y-153999629D01*
X243070290Y-153999457D01*
X243123309Y-153949697D01*
X243206172Y-153871927D01*
X243206174Y-153871925D01*
X243206419Y-153871695D01*
X243314688Y-153743702D01*
X243401170Y-153611936D01*
X243471936Y-153472852D01*
X243533061Y-153322906D01*
X243590615Y-153158555D01*
X243650673Y-152976254D01*
X243716679Y-152780263D01*
X243722567Y-152773516D01*
X243727538Y-152772299D01*
X244066053Y-152765682D01*
X244745677Y-152752396D01*
X244754016Y-152755661D01*
G37*
%TD.AperFunction*%
M02*
